<svg width="48" height="48" viewBox="0 0 48 48" fill="none" xmlns="http://www.w3.org/2000/svg">
<path d="M30.7814 22.142C30.9065 22.5367 31.0693 22.944 31.1586 23.3662C31.219 23.6494 31.175 23.9545 31.1794 24.2496C31.1844 24.5879 31.1995 24.9263 31.1964 25.2639C31.1926 25.685 31.1731 26.106 31.1649 26.527C31.1586 26.8359 31.1555 27.1447 31.1599 27.4536C31.1643 27.7581 31.1876 28.0632 31.1907 28.3677C31.1951 28.8332 31.192 29.2987 31.1869 29.7642C31.1825 30.1927 31.1681 30.6219 31.163 31.0504C31.158 31.4846 31.1599 31.9182 31.1586 32.3523C31.158 32.6756 31.1517 32.9989 31.1567 33.3216C31.1624 33.6448 31.1907 33.9675 31.1876 34.2908C31.1844 34.6015 31.1423 34.9117 31.1398 35.2224C31.1373 35.5313 31.1612 35.8402 31.1756 36.149C31.1832 36.3063 31.2014 36.4629 31.2033 36.6195C31.2083 36.9917 31.2215 37.3651 31.2052 37.7366C31.1857 38.1752 31.1096 38.6131 31.1096 39.051C31.1096 39.4902 31.2008 39.93 31.2001 40.3692C31.1995 40.8072 31.0926 41.247 31.1115 41.6824C31.1259 42.0163 30.9757 42.3296 30.9719 42.5927C30.9662 42.9975 30.6908 43.0977 30.5518 43.3408C30.4714 43.4818 30.4953 43.6929 30.3965 43.8094C30.1758 44.0707 29.9444 44.4171 29.6514 44.5017C29.1936 44.6339 28.9836 45.0305 28.6145 45.2247C28.2505 45.4158 27.8512 45.5405 27.4745 45.709C27.1771 45.8418 26.8966 46.016 26.5955 46.1376C26.3213 46.2478 26.0283 46.3111 25.7434 46.3963C25.4951 46.4709 25.2492 46.5554 24.9983 46.6212C24.5481 46.7384 24.0954 46.8468 23.6433 46.9545C23.2534 47.0479 22.8648 47.1525 22.4699 47.222C22.1058 47.286 21.7342 47.3047 21.367 47.353C21.0205 47.3987 20.6772 47.4714 20.3295 47.5077C19.8252 47.5597 19.3184 47.5873 18.8128 47.6293C18.3318 47.6694 17.852 47.7345 17.3704 47.7527C16.7378 47.7765 16.1034 47.7796 15.4702 47.7634C14.7885 47.7458 14.1063 47.7145 13.4278 47.6531C12.5368 47.5723 11.6496 47.4514 10.7605 47.3567C8.85647 47.1538 7.0185 46.6826 5.22894 46.0129C3.88017 45.5085 2.64459 44.8288 1.66807 43.7436C1.07197 43.0808 0.742478 42.3158 0.742478 41.4161C0.743735 35.795 0.821706 30.1721 0.705379 24.5529C0.658219 22.2611 1.70957 20.8996 3.56892 19.8916C5.50876 18.8397 7.60894 18.2996 9.76382 17.9337C10.0707 17.8817 10.143 17.8047 10.0531 17.4983C8.99732 13.9109 11.7703 10.0722 15.5293 9.91621C15.8097 9.9043 15.9204 9.82286 15.9738 9.53591C16.5812 6.27365 19.214 3.99439 22.5441 3.86532C23.6043 3.82397 24.6261 4.06268 25.5837 4.52317C25.8195 4.63656 25.9396 4.60587 26.1012 4.40162C27.611 2.4895 29.5697 1.30789 31.9886 0.958921C34.7245 0.564217 37.141 1.3342 39.2607 3.08093C40.1391 3.80455 40.8258 4.69483 41.3678 5.67407C41.7142 6.29934 41.9054 7.01419 42.1324 7.6996C42.2795 8.1438 42.3801 8.60491 42.4719 9.06415C42.5078 9.24145 42.4487 9.43567 42.4581 9.62049C42.4694 9.84165 42.5801 9.98575 42.8184 10.034C43.6384 10.1994 44.4023 10.4995 45.0808 10.9976C45.8643 11.5727 46.5723 12.2161 46.9754 13.1246C47.2156 13.6665 47.4841 14.2041 47.6457 14.7704C47.7601 15.1702 47.7142 15.615 47.7457 16.0385C47.7595 16.2246 47.818 16.4119 47.8041 16.5949C47.7878 16.8091 47.713 17.0184 47.6677 17.2308C47.6117 17.4952 47.5602 17.7602 47.508 18.0246C47.5023 18.0546 47.5118 18.091 47.4979 18.1154C47.3175 18.4393 47.1351 18.762 46.9509 19.084C46.8352 19.2864 46.7346 19.5019 46.595 19.6861C46.2334 20.1629 45.8932 20.6691 45.2707 20.8583C45.1865 20.884 45.1129 20.9504 45.0393 21.0043C44.8042 21.1778 44.6708 21.5381 44.2722 21.4159C44.2496 21.409 44.2068 21.4616 44.1766 21.4898C43.8672 21.7749 43.4761 21.8263 43.0825 21.8877C42.7279 21.9428 42.3808 22.0568 42.0249 22.0975C41.708 22.1339 41.3759 22.0637 41.0647 22.1195C40.8421 22.1596 40.6088 22.2943 40.4422 22.4515C40.1882 22.6908 40.2026 23.0217 40.2359 23.3575C40.2668 23.6626 40.2208 23.9746 40.2164 24.2841C40.212 24.5904 40.212 24.8968 40.2183 25.2032C40.2246 25.5083 40.2454 25.8134 40.2517 26.1185C40.2586 26.4562 40.2592 26.7939 40.2586 27.1316C40.258 27.4242 40.2479 27.7168 40.2485 28.0093C40.2491 28.3946 40.212 28.7887 40.2825 29.1615C40.307 29.2931 40.5956 29.4566 40.7704 29.4647C41.5325 29.5011 42.2978 29.4923 43.0611 29.481C43.146 29.4798 43.2586 29.372 43.3082 29.2849C44.2829 27.5814 46.3749 27.5119 47.3916 29.1859C47.6362 29.5888 47.7469 30.0981 47.8098 30.573C47.8406 30.8074 47.6136 31.0705 47.5212 31.3274C47.4747 31.457 47.5174 31.6481 47.4363 31.729C47.1804 31.9852 47.0345 32.3812 46.544 32.363C46.3309 32.3548 46.1196 32.5961 45.8913 32.6349C44.9104 32.8034 44.1043 32.4244 43.5943 31.6231C43.2661 31.1075 42.8561 31.1789 42.4091 31.1651C41.6388 31.1413 40.8597 31.2873 40.1058 30.9853C39.2223 30.6313 38.5602 29.7053 38.5596 28.7518C38.5571 26.7701 38.5564 24.7884 38.564 22.8068C38.569 21.4134 39.5374 20.4341 40.9421 20.4498C42.3009 20.4655 43.5233 20.1459 44.579 19.2538C46.5264 17.6086 46.6428 14.5769 44.8142 12.8069C43.9175 11.9392 42.831 11.5815 41.6004 11.6022C41.4514 11.6047 41.2753 11.6592 41.1603 11.599C40.9704 11.4994 40.7396 11.428 40.7748 11.0884C40.9968 8.95325 40.5988 6.96783 39.2022 5.26935C37.8736 3.65356 36.1507 2.74386 34.0568 2.58535C33.4286 2.53774 32.786 2.54776 32.1616 2.62357C31.7321 2.6762 31.3246 2.89297 30.904 3.02767C30.5739 3.13356 30.2381 3.21939 29.9092 3.3284C29.8369 3.35221 29.7904 3.44556 29.7206 3.48754C29.4458 3.65294 29.1653 3.80894 28.8899 3.97371C28.8195 4.01569 28.7566 4.07333 28.6975 4.13097C28.2813 4.54133 27.8744 4.96235 27.4475 5.36082C27.2846 5.51306 27.301 5.60578 27.4299 5.76805C27.9153 6.38078 28.429 6.9791 28.8421 7.63882C29.1075 8.06172 29.2477 8.57359 29.3842 9.06164C29.5231 9.55847 29.6005 10.0741 29.6728 10.5853C29.6835 10.6624 29.5244 10.8353 29.4345 10.8422C29.0742 10.8716 28.7057 10.8861 28.3485 10.8409C28.0637 10.8052 27.9769 10.5565 27.9574 10.2846C27.8776 9.19133 27.5003 8.2077 26.7942 7.36754C26.0126 6.43842 25.0147 5.84386 23.8061 5.67219C23.2088 5.58761 22.5875 5.55065 21.9908 5.61643C21.5349 5.66656 21.1111 5.95914 20.6546 6.06126C19.9925 6.20974 19.6334 6.74667 19.1631 7.13135C18.7801 7.44461 18.3928 7.81425 18.1778 8.24341C18.0564 8.48525 17.8351 8.75152 17.8212 8.96077C17.7973 9.31789 17.659 9.61736 17.5923 9.94565C17.5773 10.0196 17.7514 10.1856 17.8678 10.2245C19.0015 10.6085 19.9396 11.2858 20.686 12.1948C21.14 12.7481 21.5619 13.3501 21.7261 14.0794C21.8248 14.518 21.9405 14.9521 22.0417 15.3901C22.0801 15.5561 22.1367 15.7321 22.1128 15.8925C22.1002 15.9771 21.9342 16.0949 21.8329 16.0999C21.5211 16.1156 21.201 16.041 20.8954 16.0811C20.5439 16.1281 20.4358 15.9383 20.4131 15.6789C20.3106 14.5086 19.8768 13.5005 18.9983 12.7004C18.2325 12.0031 17.3144 11.6629 16.2914 11.6003C15.9241 11.5777 15.5513 11.5859 15.1859 11.6272C14.9633 11.6523 14.7552 11.7901 14.5326 11.8384C13.8523 11.985 13.4813 12.6146 12.8751 12.8746C12.828 12.8947 12.8015 12.9648 12.7663 13.0124C12.5796 13.2618 12.3991 13.5162 12.2036 13.7586C12.0728 13.9203 11.8401 14.0249 11.9464 14.2999C11.9577 14.3288 11.93 14.3995 11.9036 14.4108C11.5433 14.5643 11.7628 14.9615 11.5653 15.2078C11.4628 15.3356 11.6131 15.64 11.5458 15.828C11.4459 16.1081 11.532 16.3543 11.5509 16.6187C11.5974 17.2734 11.8458 17.8454 12.1746 18.4017C12.7839 19.433 13.7032 20.0269 14.8395 20.3107C15.1809 20.3959 15.5425 20.4341 15.8946 20.4354C19.2543 20.4448 22.6145 20.4373 25.9742 20.4473C26.3131 20.4486 26.4993 20.4034 26.4672 19.9975C26.4288 19.5213 26.4785 19.0389 26.4502 18.5609C26.3597 17.0127 27.3626 15.9257 28.9132 15.922C30.2318 15.9188 31.551 15.9163 32.8696 15.9326C33.1764 15.9364 33.2953 15.8606 33.2846 15.5329C33.2613 14.8143 33.2532 14.0926 33.2871 13.3746C33.3041 13.0193 33.1664 12.837 32.8822 12.6591C31.5818 11.8427 31.3844 10.1399 32.4458 9.03846C33.4311 8.01599 35.3414 8.25281 36.0249 9.49707C36.2066 9.82724 36.416 10.1912 36.4349 10.5484C36.455 10.9293 36.5851 11.3942 36.1966 11.7168C36.1651 11.7425 36.1148 11.787 36.1211 11.8102C36.2481 12.2857 35.8073 12.411 35.5835 12.6628C35.5212 12.733 35.3848 12.7399 35.2804 12.7706C35.0735 12.8308 34.8887 12.8602 34.9452 13.1816C34.9981 13.4811 34.9295 13.8006 34.9276 14.1114C34.9258 14.424 34.9408 14.7366 34.9484 15.0486C34.9522 15.2184 35.0106 15.4126 34.9484 15.5536C34.8258 15.8318 34.9874 15.9044 35.1785 15.917C35.5325 15.9408 35.891 15.937 36.245 15.9107C36.3412 15.9038 36.4644 15.7967 36.5154 15.7033C36.9587 14.8951 37.622 14.4234 38.5564 14.424C39.5323 14.424 40.2693 14.9083 40.7063 15.7478C40.9257 16.1688 41.0345 16.6475 40.9622 17.1832C40.9213 17.4876 40.6447 17.6681 40.6698 17.8354C40.7321 18.2489 40.4548 18.4168 40.2359 18.5822C39.8121 18.9017 39.3336 19.0827 38.7652 19.0896C37.7421 19.1015 37.0938 18.584 36.5644 17.7921C36.4827 17.6693 36.2299 17.6073 36.0563 17.6067C34.4919 17.6054 32.9281 17.6336 31.3636 17.6342C30.5424 17.6342 29.7212 17.5942 28.9 17.5779C28.541 17.571 28.1442 18.1123 28.1693 18.4907C28.1895 18.7939 28.1266 19.1015 28.1109 19.4079C28.097 19.6892 28.0593 19.9787 28.1121 20.2493C28.1297 20.3383 28.3963 20.431 28.5504 20.4323C30.0891 20.446 31.6277 20.4435 33.1664 20.4398C33.8964 20.4379 34.5321 20.6791 35.0213 21.2129C35.4344 21.6627 35.6734 22.199 35.669 22.8356C35.6646 23.3994 35.73 23.9639 35.7319 24.5284C35.7338 25.0841 35.6816 25.6399 35.6778 26.1956C35.6746 26.6354 35.7212 27.0752 35.7224 27.5156C35.7243 28.0726 35.6954 28.6296 35.6954 29.1866C35.6954 29.6389 35.73 30.0912 35.7268 30.5436C35.7243 30.979 35.6797 31.4138 35.6778 31.8486C35.6753 32.2803 35.7155 32.712 35.713 33.1436C35.7105 33.591 35.6589 34.0389 35.6671 34.4862C35.6721 34.7519 35.674 35.0771 35.8205 35.2631C35.9494 35.4266 36.2726 35.4586 36.5185 35.505C36.9316 35.5827 37.1919 35.4473 37.4428 35.0445C38.3414 33.5966 40.473 33.6968 41.3615 35.171C41.7149 35.7574 41.8092 36.3846 41.7061 37.0236C41.6539 37.3469 41.4671 37.6959 41.2382 37.9352C40.1372 39.0886 38.3143 38.9333 37.4435 37.5223C37.2617 37.2273 37.0517 37.1778 36.782 37.2034C35.1421 37.3607 33.992 35.9097 34.0115 34.5458C34.0674 30.677 34.0291 26.8077 34.0266 22.9383C34.0259 22.3832 33.8493 22.1276 33.4298 22.1176C33.0148 22.1076 32.5986 22.1351 32.1829 22.1395C31.7189 22.1458 31.2542 22.142 30.7814 22.142ZM29.4967 40.2539C29.498 40.2539 29.4986 40.2539 29.4999 40.2539C29.4999 39.8054 29.5074 39.3574 29.4942 38.9094C29.4911 38.808 29.4156 38.7077 29.3729 38.6075C29.288 38.6557 29.1968 38.6958 29.1201 38.7547C28.8994 38.9251 28.7038 39.1394 28.4624 39.2697C28.1171 39.4558 27.7361 39.5754 27.3764 39.7377C27.0658 39.8774 26.7759 40.0704 26.4559 40.1794C25.9962 40.3354 25.5177 40.4344 25.048 40.5616C24.8556 40.6142 24.6669 40.6794 24.4764 40.7364C24.2394 40.8078 24.0054 40.898 23.7634 40.9431C23.3798 41.0139 22.9887 41.0409 22.6051 41.1098C22.0719 41.2056 21.5468 41.3535 21.0111 41.4237C20.1949 41.5308 19.3744 41.6097 18.5531 41.6636C17.769 41.7156 16.9824 41.7331 16.1964 41.7419C15.5752 41.7488 14.952 41.7444 14.3327 41.7024C13.2819 41.631 12.223 41.5922 11.1874 41.4199C9.77137 41.1843 8.36727 40.8635 6.97008 40.5296C5.40878 40.1568 3.93928 39.5529 2.62887 38.605C2.58234 38.5711 2.49996 38.5686 2.44023 38.5805C2.41319 38.5862 2.38175 38.6639 2.38364 38.7071C2.4069 39.1413 2.44652 39.5748 2.46224 40.009C2.47544 40.3736 2.46538 40.7395 2.46224 41.1048C2.46098 41.2608 2.42828 41.4199 2.44778 41.5721C2.48236 41.8409 2.47607 42.1492 2.61 42.364C3.14448 43.2199 3.99524 43.6992 4.88373 44.112C6.61544 44.9171 8.45467 45.3657 10.331 45.647C14.0271 46.2015 17.7294 46.2171 21.4261 45.6439C23.5955 45.3074 25.7158 44.793 27.6556 43.7161C28.8415 43.0582 29.7243 42.208 29.5005 40.69C29.4785 40.549 29.4967 40.3999 29.4967 40.2539ZM29.4074 26.4199C29.1283 26.6861 28.9321 26.8885 28.7176 27.0696C28.6284 27.1447 28.5007 27.1767 28.3888 27.2237C28.292 27.2644 28.1869 27.2882 28.0958 27.3377C27.7619 27.5163 27.433 27.703 27.1004 27.884C27.0759 27.8978 27.0375 27.884 27.0086 27.8928C26.896 27.926 26.7822 27.9567 26.6741 28.0012C26.5986 28.0325 26.537 28.1039 26.4603 28.1252C25.9899 28.2574 25.5177 28.3815 25.0455 28.5062C24.8763 28.5506 24.7034 28.582 24.5355 28.6302C24.1218 28.7486 23.7143 28.8915 23.2962 28.9892C22.8717 29.0888 22.4385 29.1496 22.0078 29.221C21.672 29.2762 21.3362 29.3332 20.9985 29.3676C20.6527 29.4033 20.3031 29.4033 19.9572 29.4353C19.4353 29.4842 18.916 29.5637 18.3928 29.5994C17.9791 29.6276 17.5615 29.6038 17.1459 29.6126C16.5448 29.6251 15.943 29.6715 15.3425 29.6583C14.5792 29.6414 13.8158 29.595 13.0549 29.533C12.1872 29.4622 11.3132 29.4115 10.4593 29.2574C9.27525 29.0443 8.10129 28.768 6.93424 28.4742C5.39494 28.0864 3.93991 27.4931 2.63767 26.5658C2.58737 26.5301 2.51128 26.5308 2.44715 26.5151C2.43268 26.5778 2.40565 26.6404 2.4069 26.7031C2.41068 26.8904 2.43268 27.0777 2.43394 27.265C2.43583 27.5852 2.42199 27.9053 2.42514 28.2255C2.42954 28.6484 2.42954 29.0725 2.46035 29.4936C2.48047 29.7711 2.46161 30.1245 2.61944 30.3049C3.03193 30.776 3.48529 31.2434 4.00719 31.5817C5.14909 32.321 6.44692 32.7282 7.75671 33.0609C10.9755 33.8785 14.2515 34.1135 17.5634 33.9637C19.8805 33.8591 22.1687 33.5778 24.4079 32.9532C25.8264 32.5572 27.1997 32.0591 28.3938 31.172C29.1163 30.6351 29.5854 29.9697 29.5118 28.9992C29.4603 28.3151 29.5055 27.6234 29.4974 26.9355C29.4948 26.7876 29.4477 26.641 29.4074 26.4199ZM15.8852 39.9589C16.6485 39.9589 17.4131 39.9902 18.174 39.9532C20.6929 39.8298 23.1704 39.447 25.5605 38.6225C26.6998 38.2291 27.8027 37.7454 28.7208 36.9309C29.132 36.5663 29.4596 36.1365 29.4785 35.5733C29.5087 34.6673 29.4936 33.7595 29.4854 32.8523C29.4848 32.7652 29.3967 32.6794 29.349 32.5929C29.2729 32.6343 29.1936 32.6712 29.122 32.7189C28.6793 33.0102 28.2442 33.314 27.7939 33.5928C27.6066 33.7087 27.3871 33.7733 27.1815 33.8597C27.1343 33.8798 27.0847 33.8929 27.0362 33.9086C26.7269 34.0114 26.4156 34.1097 26.1075 34.2168C25.8189 34.3177 25.5391 34.4505 25.2448 34.5295C24.8399 34.6379 24.423 34.7011 24.0149 34.7976C23.6225 34.891 23.2383 35.0232 22.8428 35.1002C22.2568 35.2143 21.6663 35.3089 21.074 35.3859C20.3691 35.478 19.6623 35.5827 18.9537 35.6108C17.7263 35.6597 16.4951 35.7036 15.2696 35.6572C13.8529 35.6033 12.4387 35.4661 11.0258 35.3358C9.64813 35.2086 8.3069 34.9048 6.97385 34.5257C5.51379 34.1103 4.12226 33.5715 2.84643 32.747C2.51003 32.5296 2.50814 32.5334 2.45343 32.8723C2.45029 32.8905 2.42011 32.9062 2.42011 32.9231C2.41319 33.232 2.40628 33.5408 2.40439 33.8497C2.4025 34.178 2.40816 34.5063 2.40628 34.8346C2.40502 35.1322 2.35534 35.4367 2.40439 35.7255C2.50877 36.342 2.88165 36.8025 3.37085 37.1796C4.48508 38.038 5.77537 38.5229 7.10527 38.9094C9.9707 39.7408 12.9116 40.0203 15.8852 39.9589ZM25.7472 22.1314C25.8201 22.2235 25.8409 22.2579 25.8692 22.2842C26.266 22.6526 26.6049 23.0116 26.6143 23.6375C26.6181 23.875 26.4565 23.9577 26.4521 24.1356C26.4445 24.4676 25.988 24.9895 25.685 25.0885C25.3335 25.2032 24.9977 25.3661 24.6518 25.4983C24.3242 25.6229 23.9966 25.7545 23.6583 25.8454C23.3062 25.9393 22.9415 25.9857 22.5831 26.0571C22.175 26.1386 21.7713 26.2451 21.3601 26.3021C20.8898 26.3672 20.4125 26.3835 19.9396 26.4324C19.4473 26.4831 18.9581 26.5715 18.4645 26.6003C17.8967 26.6335 17.3257 26.626 16.7567 26.6229C15.6833 26.6172 14.6056 26.6561 13.5372 26.5771C12.2262 26.4806 10.9139 26.3322 9.61794 26.1141C8.38299 25.9068 7.16312 25.6067 6.1124 24.8498C5.18241 24.1801 5.02899 23.1545 5.80681 22.3958C6.04764 22.1608 6.36141 21.9848 6.667 21.8325C7.88246 21.2267 9.20105 20.9924 10.5316 20.8094C10.9925 20.7461 11.4534 20.6829 11.964 20.6127C11.6332 20.2412 11.3522 19.9091 11.0491 19.5984C10.9717 19.5188 10.8133 19.4555 10.7089 19.4749C10.1782 19.5739 9.65316 19.7055 9.12497 19.8195C8.91747 19.8646 8.70556 19.8903 8.49743 19.9329C8.24905 19.9837 7.99879 20.0313 7.75545 20.1015C7.4945 20.1766 7.24235 20.2825 6.98266 20.3652C6.50666 20.5168 6.01557 20.6302 5.55403 20.8169C5.18681 20.9654 4.85921 21.2091 4.50457 21.3915C4.37252 21.4591 4.17068 21.429 4.07196 21.5199C3.5664 21.9873 3.06274 22.4609 2.60686 22.9747C2.46035 23.1394 2.38364 23.442 2.40879 23.667C2.46161 24.1462 2.69992 24.5898 3.09481 24.8611C3.79591 25.3435 4.50834 25.8334 5.27799 26.1881C6.87387 26.9236 8.58797 27.2951 10.3178 27.5633C12.5551 27.9097 14.8087 28.0263 17.0736 27.953C18.9178 27.8928 20.747 27.7186 22.558 27.3653C24.2488 27.0351 25.8937 26.5627 27.4274 25.7595C28.1467 25.3824 28.8252 24.9438 29.2578 24.2321C29.8356 23.2804 29.2245 22.1389 28.1442 22.132C27.3701 22.1276 26.5967 22.1314 25.7472 22.1314Z" fill="black"/>
</svg>
