<svg width="346" height="332" viewBox="0 0 346 332" fill="none" xmlns="http://www.w3.org/2000/svg">
<path d="M56.8532 137.967C59.0046 139.086 61.2156 140.135 63.2926 141.341C65.8386 142.821 68.1613 144.596 70.7892 145.957C78.1667 149.768 85.626 153.46 93.1002 157.127C95.207 158.158 97.686 158.72 99.629 159.92C100.679 160.563 101.445 162.118 101.378 163.218C101.341 163.811 99.1898 164.873 98.1401 164.761C93.5543 164.286 89.0132 163.462 84.0999 163.224C92.0357 166.741 99.8746 170.446 107.959 173.707C112.217 175.425 116.989 176.231 121.397 177.724C122.588 178.13 123.31 179.523 124.24 180.466C123.034 181.259 121.91 182.609 120.607 182.74C117.384 183.071 114.071 182.846 111.488 182.846C118.471 186.507 127.01 188.687 135.831 190.105C141.809 191.067 142.07 191.323 138.772 195.528C138.697 195.621 139.315 196.346 139.665 196.371C142.479 196.615 145.338 196.621 148.115 197.014C149.298 197.183 151.13 198.014 151.234 198.701C151.375 199.594 150.385 201.012 149.38 201.575C144.132 204.498 138.548 207.003 133.427 210.071C129.161 212.619 125.424 215.774 121.374 218.592C118.069 220.897 114.592 223.027 111.317 225.357C109.731 226.488 108.436 227.906 107.029 229.205C96.1896 239.176 87.6211 250.32 82.2388 263.102C81.7475 264.264 81.4645 265.494 81.1816 266.706C80.8318 268.224 80.5935 269.767 80.3032 271.298C81.5464 270.067 82.6631 268.724 84.0552 267.631C88.6037 264.057 93.1895 260.509 97.9242 257.117C98.6165 256.624 100.53 256.642 101.297 257.105C101.989 257.529 102.257 258.922 102.086 259.803C99.7183 271.954 99.1897 284.086 102.815 296.117C104.795 302.689 107.237 309.167 109.5 315.677C109.657 316.139 110.066 316.539 110.401 317.026C111.987 309.586 113.275 302.258 115.195 295.055C116.282 290.963 118.255 287.015 120.198 283.13C120.652 282.218 122.535 281.549 123.89 281.337C124.382 281.262 125.729 282.805 125.856 283.692C127.419 294.674 132.489 304.626 138.816 314.127C142.799 320.118 147.497 325.772 151.889 331.575C152.142 331.907 152.499 332.181 152.157 331.85C151.509 323.904 150.795 315.377 150.11 306.85C149.894 304.182 149.425 301.49 149.723 298.86C149.842 297.779 151.688 296.842 152.745 295.836C153.81 296.686 155.209 297.385 155.872 298.416C161.031 306.425 166.785 314.065 174.788 320.318C176.709 321.824 179.061 322.948 181.19 324.229C180.111 321.299 178.786 318.219 177.855 315.058C176.82 311.56 175.942 308.005 175.406 304.432C175.235 303.301 176.381 302.033 176.917 300.828C178.443 301.64 180.416 302.177 181.399 303.32C183.543 305.806 185.128 308.624 187.042 311.26C188.047 312.641 189.089 312.928 190.823 311.604C195.424 308.105 201.372 307.143 207.231 306.662C208.712 306.537 210.827 308.643 212.047 310.086C214.474 312.947 216.477 316.058 218.584 318.969C218.338 313.265 217.958 307.887 217.914 302.508C217.884 299.066 219.298 298.173 223.445 298.416C225.038 298.51 226.631 298.685 228.217 298.885C228.954 298.978 229.668 299.203 230.398 299.366C230.041 298.735 229.884 297.885 229.296 297.498C226.437 295.636 223.43 293.931 220.542 292.1C219.269 291.295 217.415 290.445 217.169 289.395C216.99 288.615 218.77 287.153 220.05 286.584C222.038 285.697 221.576 284.973 220.326 284.11C215.933 281.099 212.234 281.774 210.134 286.116C209.166 288.109 208.668 290.27 208.02 292.369C207.097 295.355 205.273 296.305 202.6 294.418C197.992 291.163 193.354 287.753 189.699 283.773C179.232 272.366 176.061 259.204 178.138 245.085C178.495 242.649 179.344 240.194 180.49 237.932C181.019 236.895 182.828 236.314 184.056 235.534C184.764 236.558 186.133 237.608 186.074 238.607C185.627 246.884 186.885 254.906 190.749 262.546C191.88 264.776 193.451 266.919 195.253 268.812C195.804 269.392 198.074 269.449 199.064 268.999C205.05 266.244 211.281 264.27 218.129 263.701C221.048 263.458 223.921 262.621 226.817 262.608C228.135 262.602 229.877 263.695 230.703 264.707C233.309 267.868 235.572 271.229 238.162 274.777C237.537 269.799 236.636 265.438 236.517 261.059C236.368 255.343 239.622 253.706 246.046 255.774C246.805 256.018 247.669 256.055 248.48 256.193C248.168 255.455 248.116 254.412 247.49 254.031C245.041 252.513 242.324 251.301 239.882 249.777C238.609 248.977 237.708 247.759 236.636 246.734C237.731 245.941 238.892 245.204 239.882 244.329C240.21 244.036 240.306 243.024 240.173 242.974C237.79 242.068 235.408 241.106 232.892 240.6C232.497 240.519 231.284 242.574 230.792 243.742C229.698 246.328 228.745 248.958 227.889 251.607C227.167 253.862 224.971 254.668 223.088 253.775C218.479 251.595 213.41 249.871 210.871 245.316C208.176 240.487 208.161 235.902 210.268 230.948C211.921 227.069 215.353 224.607 218.636 221.903C225.954 215.874 235.453 213.544 244.848 211.32C260.756 207.559 277.082 206.123 293.579 207.266C304.128 207.997 314.632 209.365 324.235 213.432C327.622 214.868 330.92 216.636 333.742 218.742C335.402 219.978 336.585 222.102 336.98 223.97C337.419 226.076 338.588 226.082 339.667 224.97C341.878 222.702 345.072 220.216 345.295 217.661C345.913 210.683 347.037 203.88 341.819 196.908C335.007 187.806 326.506 181.409 314.528 178.38C306.897 176.449 298.946 175.425 291.182 173.838C270.263 169.552 250.409 163.131 233.443 151.717C227.666 147.832 222.708 143.009 217.832 138.28C211.973 132.601 208.318 125.829 205.883 118.608C205.191 116.553 203.762 115.335 201.179 114.816C192.26 113.023 183.26 111.418 174.52 109.119C166.13 106.913 157.852 104.259 149.842 101.216C134.886 95.5252 119.967 89.7279 105.406 83.3684C93.9563 78.3708 83.0799 72.4424 71.9282 66.97C67.2531 64.6773 62.4291 62.5908 57.8285 60.2045C52.5652 57.4808 47.3317 54.6821 42.3291 51.6398C29.3311 43.7311 16.4597 35.6661 3.53613 27.6637C3.33514 27.5387 3.14905 27.3888 2.91824 27.3201C1.95047 27.0202 0.97522 26.7391 0 26.458C0.379669 27.2014 0.588165 28.076 1.17627 28.6757C3.02994 30.5561 5.09204 32.2927 6.94571 34.1668C8.21127 35.4412 9.26834 36.8593 10.4222 38.2149C12.9831 41.2135 15.4621 44.2683 18.1496 47.1857C19.7054 48.8724 21.6038 50.3342 23.3309 51.9146C24.8571 53.3077 26.3682 54.7071 27.8646 56.1189C33.1725 61.129 38.4283 66.1766 43.7808 71.1555C47.1903 74.329 50.7414 77.39 54.2254 80.5073C55.6994 81.8192 57.419 83.0061 58.5431 84.5054C59.2578 85.4612 59.0791 86.8855 59.3024 88.1037C57.6572 88.2474 55.811 88.8471 54.404 88.4223C52.6769 87.8913 51.4113 86.3858 49.781 85.5174C40.9072 80.8197 31.8474 76.3593 23.1299 71.4679C18.5144 68.8816 14.4646 65.5769 9.59592 63.0469C15.0378 68.5005 20.7179 73.798 25.8769 79.4328C34.2146 88.5347 43.7659 96.6246 54.0318 104.152C56.7192 106.12 59.4662 108.144 62.5706 109.556C65.3101 110.805 66.8585 112.498 65.7195 114.66C64.4167 117.121 61.4837 115.834 59.5109 115.097C51.8654 112.242 44.3316 109.162 36.7532 106.183C35.9864 105.883 35.175 105.67 34.3784 105.433C33.2395 105.096 32.093 104.783 30.9466 104.458C31.7878 105.327 32.495 106.326 33.4851 107.045C37.1775 109.725 41.1678 112.136 44.6666 114.978C55.6918 123.918 67.8114 131.633 80.8764 138.33C81.0848 138.436 81.2561 138.636 81.472 138.692C84.0701 139.367 86.5416 140.629 84.9113 143.003C84.2562 143.958 80.7276 144.227 78.8739 143.771C71.623 141.984 64.5135 139.779 57.3445 137.73C57.2031 137.811 57.0318 137.886 56.8532 137.967ZM340.925 209.796C340.925 211.458 341.022 213.125 340.881 214.781C340.821 215.506 340.293 216.199 339.973 216.911C339.169 216.436 338.283 216.03 337.568 215.474C334.01 212.694 330.488 209.871 326.96 207.06C326.178 206.441 325.426 205.791 324.667 205.161C325.664 204.736 326.662 204.317 327.652 203.886C328.27 203.618 328.88 203.336 329.491 203.062C327.473 201.868 324.831 199.332 323.558 199.751C320.342 200.8 318.726 199.363 316.672 198.233C313.582 196.54 310.478 194.853 307.463 193.073C306.502 192.504 305.795 191.642 304.976 190.917C306.056 190.667 307.135 190.405 308.222 190.168C308.877 190.024 309.54 189.905 310.195 189.78C309.808 189.293 309.547 188.625 309.004 188.35C305.095 186.376 301.098 184.527 297.212 182.528C296.177 181.997 295.433 181.066 294.562 180.322C295.902 180.166 297.42 179.585 298.559 179.916C306.927 182.321 315.756 184.102 323.409 187.644C333.429 192.254 341.528 198.845 340.925 209.796Z" fill="white"/>
<path d="M100.238 34.6585C102.047 38.2943 103.119 41.3928 105.017 44.0728C110.869 52.3626 116.839 60.6024 123.152 68.6361C126.1 72.3843 130.09 75.5453 133.343 79.1374C134.639 80.5679 135.227 82.442 136.143 84.1162C134.125 84.4786 132.115 84.8659 130.09 85.1782C129.502 85.2719 128.862 85.147 128.006 85.628C131.721 87.0336 135.42 88.4704 139.15 89.8448C147.838 93.0432 156.332 96.729 165.287 99.2778C179.514 103.326 193.614 108.042 208.949 108.611C209.962 108.648 211.532 109.767 211.8 110.616C214.465 118.937 217.726 127.052 224.009 133.986C230.776 141.451 238.794 147.817 248.702 152.371C252.856 154.283 256.906 156.338 261.455 158.543C256.698 152.99 251.851 148.298 248.3 142.994C240.997 132.087 236.91 120.468 240.536 107.755C240.908 106.449 241.318 105.075 241.198 103.769C241.117 102.882 240.402 101.652 239.531 101.252C231.282 97.5161 222.677 94.2926 214.681 90.2133C203.842 84.6847 193.316 78.7063 182.938 72.578C177.653 69.4607 172.896 65.6875 168.087 62.0455C158.796 55.0176 149.513 47.9709 140.468 40.7181C136.314 37.3885 132.733 33.559 128.892 29.9545C126.264 27.4994 123.621 25.0568 121 22.5955C115.626 17.5292 110.184 12.5128 104.928 7.359C102.442 4.92266 100.335 2.21769 97.3198 0C101.958 8.78957 106.275 17.7103 111.338 26.325C115.842 34.0026 121.261 41.3054 126.011 48.883C126.695 49.9825 125.936 51.7191 125.839 53.156C124.001 52.9498 121.492 53.3121 120.442 52.4376C113.839 46.9402 107.541 41.1554 100.238 34.6585Z" fill="white"/>
</svg>
