<svg width="48" height="48" viewBox="0 0 48 48" fill="none" xmlns="http://www.w3.org/2000/svg">
<path d="M28.6801 18.6444C29.3796 18.8445 29.9578 19.2077 30.4188 19.7553C30.9625 20.4018 31.2511 21.1494 31.2532 21.996C31.2595 25.1402 31.2668 28.2834 31.2511 31.4276C31.2417 33.3914 29.6953 34.8814 27.692 34.8856C25.1702 34.8909 22.6473 34.8888 20.1254 34.8856C19.4792 34.8846 18.83 34.9119 18.189 34.853C16.4179 34.6919 15.0764 33.2472 15.0649 31.4603C15.043 28.2929 15.0336 25.1255 15.0691 21.9581C15.0869 20.4197 15.8846 19.3499 17.2888 18.7528C17.4477 18.6855 17.4896 18.6117 17.4896 18.4496C17.4917 17.4071 17.4571 16.3615 17.5262 15.3233C17.6914 12.8477 19.6162 10.7333 22.0408 10.2953C25.1074 9.74037 27.9639 11.6915 28.5713 14.7694C28.6477 15.159 28.6696 15.5634 28.677 15.9614C28.6905 16.8459 28.6801 17.7315 28.6801 18.6444ZM27.277 18.4148C27.277 17.4903 27.3041 16.5827 27.2717 15.676C27.1902 13.4427 25.4138 11.7158 23.2004 11.6863C21.0507 11.6579 19.2262 13.2963 19.0652 15.4465C19.0035 16.2657 19.0391 17.0912 19.0307 17.9147C19.0286 18.0779 19.0307 18.24 19.0307 18.4148C21.7857 18.4148 24.5157 18.4148 27.277 18.4148ZM23.1334 31.0306C23.4523 31.0306 23.7712 31.0317 24.0901 31.0306C24.8962 31.0285 25.303 30.5062 25.1137 29.7186C24.844 28.593 24.5773 27.4673 24.3055 26.3417C24.2741 26.2101 24.2783 26.1237 24.4059 26.0269C25.442 25.2403 25.4964 23.6966 24.5261 22.8279C23.6782 22.0687 22.4089 22.1803 21.6069 23.0838C20.8719 23.9135 20.9597 25.1666 21.8296 25.9405C22.0116 26.1016 22.0356 26.2311 21.9792 26.4544C21.7031 27.5537 21.4459 28.6583 21.1856 29.7618C21.0141 30.4883 21.4355 31.0254 22.1757 31.0285C22.4957 31.0317 22.8146 31.0306 23.1334 31.0306Z" fill="black"/>
<path d="M16.0308 17.3008C15.4641 16.4668 14.8869 15.6392 14.338 14.7936C14.2272 14.623 14.1812 14.3809 14.1801 14.1703C14.1686 12.0296 14.1707 9.88884 14.1781 7.74813C14.1791 7.53858 14.1321 7.44065 13.9188 7.36905C12.4979 6.88994 11.5621 5.55897 11.5997 4.1027C11.6363 2.65484 12.6097 1.386 13.9867 0.989024C15.7359 0.484646 17.5615 1.47656 18.0821 3.21398C18.6112 4.97667 17.6545 6.81518 15.9074 7.37326C15.715 7.43434 15.645 7.51015 15.646 7.72496C15.6565 9.70141 15.6586 11.6768 15.646 13.6533C15.6439 13.9913 15.6962 14.285 15.9304 14.5335C16.1123 14.7262 16.1489 14.9421 16.1291 15.2138C16.0851 15.8224 16.0977 16.4352 16.0872 17.047C16.0862 17.1292 16.0872 17.2123 16.0872 17.2945C16.0684 17.2955 16.0496 17.2976 16.0308 17.3008ZM13.0781 4.18272C13.074 5.22096 13.8707 6.04018 14.8953 6.04861C15.9294 6.05809 16.7501 5.23676 16.7491 4.19431C16.7491 3.15922 15.9429 2.34316 14.9183 2.34C13.8926 2.3379 13.0834 3.14764 13.0781 4.18272Z" fill="black"/>
<path d="M30.6181 17.8726C30.2302 17.8052 30.1999 17.5546 30.2208 17.2555C30.2427 16.9512 30.1518 16.6079 30.2647 16.351C30.3734 16.1025 30.6798 15.9425 30.9004 15.7445C31.6982 15.0316 32.498 14.3219 33.2916 13.6048C33.3867 13.5185 33.4756 13.41 33.5268 13.2942C33.9963 12.2286 34.4532 11.1567 34.9258 10.0921C34.9948 9.93625 34.9634 9.86886 34.8421 9.76672C33.7161 8.81482 33.3648 7.22482 33.9691 5.8591C34.5724 4.49443 35.9692 3.73418 37.503 3.9353C38.8884 4.11746 40.0458 5.27996 40.2664 6.71096C40.6125 8.94855 38.7169 10.8671 36.491 10.5249C36.331 10.5006 36.2933 10.5733 36.2421 10.6902C35.7716 11.7727 35.3022 12.8562 34.8202 13.9334C34.7397 14.1134 34.6226 14.2935 34.4783 14.4241C33.2215 15.5602 31.9554 16.6859 30.6913 17.8136C30.6631 17.841 30.6306 17.8631 30.6181 17.8726ZM38.8288 7.17954C38.8351 6.13077 38.0269 5.30628 36.9949 5.30523C35.9734 5.30417 35.1579 6.12024 35.1506 7.15111C35.1432 8.17566 35.9567 9.00436 36.9782 9.01383C38.0007 9.02226 38.8236 8.20725 38.8288 7.17954Z" fill="black"/>
<path d="M32.82 22.7205C32.7939 22.2193 32.7688 21.7518 32.7427 21.2442C32.8242 21.2442 32.9131 21.2442 33.002 21.2442C34.1929 21.2442 35.3837 21.2464 36.5746 21.2411C36.6666 21.2411 36.7858 21.2169 36.8465 21.1569C37.7279 20.2818 38.6009 19.3994 39.4499 18.5444C39.2491 18.1548 39.0118 17.801 38.8748 17.4103C38.1963 15.4802 39.4342 13.4027 41.4396 13.0689C43.2536 12.7667 44.8847 13.8344 45.2977 15.596C45.8183 17.8157 43.9876 19.9143 41.7344 19.6669C41.4364 19.6342 41.1395 19.5553 40.8541 19.4615C40.7014 19.411 40.6199 19.4363 40.5143 19.5437C39.6046 20.4682 38.6814 21.378 37.7822 22.312C37.4937 22.6121 37.1894 22.7363 36.7743 22.729C35.5448 22.7068 34.3152 22.7205 33.0856 22.7205C32.9999 22.7205 32.9152 22.7205 32.82 22.7205ZM41.9937 18.198C43.0288 18.199 43.8318 17.3945 43.8318 16.3531C43.8328 15.3117 43.0309 14.5009 42 14.4988C40.9701 14.4978 40.1629 15.3086 40.1588 16.3468C40.1546 17.3819 40.9628 18.1969 41.9937 18.198Z" fill="black"/>
<path d="M32.7283 27.3989C32.7283 26.8861 32.7283 26.4175 32.7283 25.9194C35.3536 25.9194 37.9696 25.9194 40.5919 25.9194C40.7435 25.0328 41.1429 24.32 41.8329 23.7829C42.9172 22.9395 44.4322 22.8658 45.598 23.6008C46.7721 24.34 47.3702 25.7573 47.0805 27.1156C46.7867 28.5003 45.6962 29.5333 44.3234 29.7281C42.8032 29.944 41.3436 29.0795 40.7529 27.599C40.688 27.4379 40.6096 27.3957 40.4486 27.3957C37.9738 27.3999 35.499 27.3989 33.0252 27.3989C32.9342 27.3989 32.8433 27.3989 32.7283 27.3989ZM43.8278 24.5832C42.7938 24.5874 41.9992 25.3961 42.0023 26.4407C42.0044 27.4768 42.8178 28.2866 43.8487 28.2792C44.8807 28.2718 45.6879 27.4526 45.6785 26.4196C45.6691 25.3814 44.8608 24.579 43.8278 24.5832Z" fill="black"/>
<path d="M32.7073 32.1351C32.7073 31.6255 32.7073 31.1569 32.7073 30.6588C32.8244 30.6588 32.907 30.6588 32.9896 30.6588C34.2819 30.6588 35.5742 30.663 36.8665 30.6557C37.1655 30.6536 37.3903 30.7399 37.6067 30.9642C38.3689 31.7592 39.1562 32.53 39.9268 33.3176C40.0502 33.444 40.1275 33.4461 40.2739 33.3482C41.3968 32.5942 42.892 32.6311 44.0045 33.4261C45.119 34.2232 45.623 35.6405 45.2758 37.0052C44.9465 38.3003 43.8194 39.2922 42.4947 39.4533C39.9289 39.765 38.0218 37.201 39.0381 34.7981C39.1071 34.636 39.0966 34.5433 38.9701 34.418C38.2759 33.7314 37.5879 33.0386 36.9062 32.3394C36.7651 32.1941 36.6239 32.1299 36.419 32.132C35.2595 32.1414 34.0989 32.1362 32.9394 32.1362C32.8537 32.1351 32.77 32.1351 32.7073 32.1351ZM40.2311 36.1312C40.2269 37.1621 41.034 37.9876 42.0555 37.996C43.0844 38.0044 43.9145 37.1747 43.9135 36.1396C43.9124 35.1119 43.0948 34.2895 42.0754 34.2874C41.0518 34.2853 40.2352 35.1024 40.2311 36.1312Z" fill="black"/>
<path d="M13.5287 21.2441C13.5287 21.7496 13.5287 22.2171 13.5287 22.7057C13.422 22.712 13.3478 22.7204 13.2736 22.7204C12.2698 22.7215 11.2651 22.7162 10.2613 22.7246C9.95918 22.7267 9.72602 22.6214 9.51482 22.4077C8.578 21.4547 7.63178 20.5134 6.69706 19.5583C6.56636 19.4246 6.46285 19.4077 6.29348 19.4699C4.34352 20.1838 2.30679 19.0076 1.99835 16.9417C1.68573 14.8473 3.0669 13.3478 4.68123 13.0709C6.54963 12.7497 8.25284 13.967 8.54141 15.8213C8.68256 16.73 8.47658 17.564 7.92872 18.3063C7.88271 18.3684 7.83566 18.4295 7.74052 18.5538C8.01968 18.8139 8.3093 19.0645 8.578 19.3361C9.13319 19.8974 9.68106 20.4649 10.2216 21.0388C10.3596 21.1852 10.4976 21.2536 10.7047 21.2505C11.5683 21.2378 12.433 21.2452 13.2966 21.2452C13.3813 21.2441 13.4649 21.2441 13.5287 21.2441ZM5.17996 18.1979C6.2182 18.2042 7.02118 17.4113 7.03582 16.3678C7.05045 15.3348 6.25165 14.5145 5.21551 14.4998C4.18878 14.485 3.37116 15.2937 3.3628 16.332C3.35548 17.3776 4.14905 18.1915 5.17996 18.1979Z" fill="black"/>
<path d="M20.0615 36.3063C20.5676 36.3063 21.0402 36.3063 21.5284 36.3063C21.5326 36.3937 21.5389 36.4695 21.5389 36.5464C21.5389 38.2006 21.5347 39.8548 21.5431 41.5091C21.5452 41.8766 21.4103 42.1303 21.0956 42.3199C20.6021 42.6168 20.1232 42.938 19.6412 43.2465C20.3449 45.1461 19.2335 46.9425 17.8523 47.5111C16.3237 48.1408 14.5923 47.609 13.7318 46.2285C12.8619 44.8344 13.1201 43.0212 14.3445 41.9313C15.4486 40.9478 17.3452 40.6772 18.8236 42.0619C19.2125 41.8081 19.613 41.5565 19.9998 41.2858C20.0532 41.2479 20.0594 41.1184 20.0605 41.031C20.0636 39.5495 20.0636 38.0669 20.0636 36.5853C20.0615 36.5021 20.0615 36.4179 20.0615 36.3063ZM14.6236 44.5101C14.6205 45.5483 15.4214 46.3644 16.4492 46.3707C17.4738 46.377 18.3332 45.5167 18.3447 44.4711C18.3552 43.535 17.455 42.6695 16.4627 42.6621C15.4402 42.6558 14.6268 43.4729 14.6236 44.5101Z" fill="black"/>
<path d="M6.60823 25.9131C8.93145 25.9131 11.2473 25.9131 13.5779 25.9131C13.5779 26.4069 13.5779 26.8818 13.5779 27.3978C13.4806 27.3978 13.3834 27.3978 13.2851 27.3978C11.1135 27.3978 8.94295 27.3999 6.77134 27.3946C6.5936 27.3946 6.50577 27.4336 6.43572 27.6189C5.83348 29.2026 4.2066 30.0587 2.56614 29.6712C0.985263 29.2974 -0.0812 27.7916 0.0557671 26.1258C0.191689 24.4842 1.5164 23.2027 3.18719 23.0964C4.76179 22.9963 6.20988 24.1051 6.55073 25.673C6.56746 25.7478 6.58628 25.8225 6.60823 25.9131ZM3.35762 24.5832C2.32775 24.5821 1.51536 25.3982 1.5164 26.4311C1.51745 27.4673 2.32775 28.2812 3.35657 28.2802C4.38957 28.2802 5.19256 27.4704 5.19256 26.4311C5.1936 25.3897 4.39376 24.5842 3.35762 24.5832Z" fill="black"/>
<path d="M7.08407 33.5019C7.13112 33.4292 7.16877 33.346 7.22836 33.286C8.00207 32.5026 8.78205 31.7245 9.55262 30.9379C9.74605 30.741 9.95934 30.6515 10.2375 30.6546C11.2412 30.6652 12.2449 30.6588 13.2497 30.6588C13.326 30.6588 13.4034 30.6588 13.4891 30.6588C13.5163 31.1464 13.5424 31.6202 13.5707 32.1235C13.4902 32.1267 13.4002 32.1341 13.3103 32.1341C12.4467 32.1351 11.582 32.1404 10.7184 32.1299C10.5166 32.1277 10.3723 32.1814 10.2291 32.3289C9.57039 33.007 8.90751 33.6809 8.23 34.339C8.04703 34.517 8.01357 34.6486 8.11185 34.8939C8.804 36.625 8.00416 38.5573 6.29469 39.227C5.02643 39.724 3.82823 39.5281 2.81927 38.5983C1.79568 37.6549 1.48829 36.4523 1.90337 35.1256C2.31427 33.8125 3.25527 33.047 4.60508 32.8406C5.40701 32.7174 6.16817 32.888 6.85405 33.346C6.89901 33.3766 6.94397 33.4071 6.98998 33.4356C7.00252 33.444 7.01821 33.4471 7.03284 33.4524C7.05062 33.4692 7.06735 33.485 7.08407 33.5019ZM6.96384 36.1501C6.97011 35.1203 6.16085 34.2948 5.13935 34.2874C4.11576 34.28 3.29605 35.0898 3.28245 36.1196C3.26991 37.1442 4.08021 37.9823 5.09753 37.995C6.13053 38.0087 6.95756 37.1915 6.96384 36.1501Z" fill="black"/>
<path d="M24.7047 36.3704C25.2023 36.3704 25.6666 36.3704 26.159 36.3704C26.1632 36.4535 26.1705 36.5357 26.1705 36.6178C26.1716 37.3317 26.1663 38.0446 26.1768 38.7575C26.1778 38.8459 26.2343 38.9786 26.3044 39.0155C27.0843 39.4209 27.8727 39.8126 28.6506 40.2032C28.8712 40.0042 29.0688 39.7904 29.3009 39.623C30.358 38.8638 31.5007 38.7269 32.6749 39.2829C33.8407 39.8347 34.4795 40.795 34.5611 42.0944C34.6667 43.7791 33.3346 45.3534 31.6816 45.526C29.8415 45.7177 28.2303 44.5141 27.9908 42.7462C27.9427 42.3934 27.9605 42.028 27.9804 41.67C27.9887 41.5215 27.9668 41.4478 27.8309 41.3826C26.9892 40.9772 26.158 40.5507 25.3111 40.1579C24.873 39.9558 24.6806 39.6641 24.6984 39.1692C24.7277 38.3236 24.7068 37.476 24.7068 36.6294C24.7047 36.5525 24.7047 36.4757 24.7047 36.3704ZM33.0868 42.305C33.091 41.2615 32.2943 40.4475 31.2634 40.4433C30.2294 40.4391 29.4222 41.2404 29.4128 42.2808C29.4034 43.3116 30.2116 44.1372 31.2394 44.1466C32.2629 44.1572 33.0827 43.3401 33.0868 42.305Z" fill="black"/>
</svg>
