<svg width="66" height="85" viewBox="0 0 66 85" fill="none" xmlns="http://www.w3.org/2000/svg">
<path d="M10.4148 78.6364V79.4801H8.53409V83H7.52841V78.6364H10.4148ZM18.9993 84.6364V78.6364H20.0107V79.358H20.0704C20.1234 79.2519 20.1982 79.1392 20.2948 79.0199C20.3914 78.8987 20.5221 78.7955 20.6868 78.7102C20.8516 78.6231 21.0618 78.5795 21.3175 78.5795C21.6546 78.5795 21.9586 78.6657 22.2295 78.8381C22.5022 79.0085 22.7181 79.2614 22.8772 79.5966C23.0382 79.9299 23.1187 80.339 23.1187 80.8239C23.1187 81.303 23.0401 81.7102 22.8829 82.0455C22.7257 82.3807 22.5117 82.6364 22.2408 82.8125C21.97 82.9886 21.6632 83.0767 21.3204 83.0767C21.0704 83.0767 20.863 83.035 20.6982 82.9517C20.5334 82.8684 20.4009 82.768 20.3005 82.6506C20.202 82.5312 20.1253 82.4186 20.0704 82.3125H20.0278V84.6364H18.9993ZM20.0079 80.8182C20.0079 81.1004 20.0476 81.3475 20.1272 81.5597C20.2086 81.7718 20.3251 81.9375 20.4766 82.0568C20.63 82.1742 20.8156 82.233 21.0334 82.233C21.2607 82.233 21.4511 82.1723 21.6045 82.0511C21.7579 81.928 21.8734 81.7604 21.9511 81.5483C22.0306 81.3343 22.0704 81.0909 22.0704 80.8182C22.0704 80.5473 22.0315 80.3068 21.9539 80.0966C21.8762 79.8864 21.7607 79.7216 21.6073 79.6023C21.4539 79.483 21.2626 79.4233 21.0334 79.4233C20.8137 79.4233 20.6272 79.4811 20.4738 79.5966C20.3204 79.7121 20.2039 79.8741 20.1243 80.0824C20.0467 80.2907 20.0079 80.536 20.0079 80.8182ZM32.7508 81.608L34.498 78.6364H35.5548V83H34.5605V80.0256L32.819 83H31.7593V78.6364H32.7508V81.608ZM46.351 84.483V77.1818H47.3823V84.483H46.351ZM46.351 83.0852C46.0309 83.0852 45.7383 83.0312 45.4732 82.9233C45.208 82.8153 44.9789 82.6619 44.7857 82.4631C44.5944 82.2642 44.4457 82.0275 44.3397 81.7528C44.2355 81.4763 44.1834 81.1705 44.1834 80.8352C44.1834 80.5 44.2355 80.1941 44.3397 79.9176C44.4457 79.6411 44.5944 79.4034 44.7857 79.2045C44.9789 79.0038 45.208 78.8494 45.4732 78.7415C45.7383 78.6335 46.0309 78.5795 46.351 78.5795H46.5698V83.0852H46.351ZM46.351 82.2557H46.4789V79.4091H46.351C46.1692 79.4091 46.0082 79.447 45.8681 79.5227C45.7298 79.5966 45.6133 79.6998 45.5186 79.8324C45.4258 79.9631 45.3548 80.1146 45.3056 80.2869C45.2582 80.4574 45.2345 80.6402 45.2345 80.8352C45.2345 81.0947 45.2772 81.3324 45.3624 81.5483C45.4476 81.7623 45.5726 81.9337 45.7374 82.0625C45.9041 82.1913 46.1086 82.2557 46.351 82.2557ZM47.3823 83.0852H47.1635V78.5795H47.3823C47.7023 78.5795 47.995 78.6335 48.2601 78.7415C48.5253 78.8494 48.7535 79.0038 48.9448 79.2045C49.138 79.4034 49.2866 79.6411 49.3908 79.9176C49.4969 80.1941 49.5499 80.5 49.5499 80.8352C49.5499 81.1705 49.4969 81.4763 49.3908 81.7528C49.2866 82.0275 49.138 82.2642 48.9448 82.4631C48.7535 82.6619 48.5253 82.8153 48.2601 82.9233C47.995 83.0312 47.7023 83.0852 47.3823 83.0852ZM47.3823 82.2557C47.566 82.2557 47.727 82.2187 47.8652 82.1449C48.0035 82.071 48.119 81.9687 48.2118 81.8381C48.3065 81.7074 48.3775 81.5568 48.4249 81.3864C48.4722 81.214 48.4959 81.0303 48.4959 80.8352C48.4959 80.5758 48.4542 80.3381 48.3709 80.1222C48.2876 79.9062 48.1626 79.7339 47.9959 79.6051C47.8311 79.4744 47.6266 79.4091 47.3823 79.4091H47.2544V82.2557H47.3823Z" fill="white"/>
<path d="M54.7923 31.2875C54.3843 31.5411 53.9651 31.7791 53.5713 32.0525C53.0886 32.3883 52.6482 32.7906 52.15 33.0994C50.7512 33.9636 49.337 34.8008 47.9199 35.6324C47.5204 35.8662 47.0504 35.9937 46.682 36.2657C46.483 36.4116 46.3376 36.7643 46.3503 37.0137C46.3574 37.1482 46.7653 37.3891 46.9643 37.3636C47.8338 37.2559 48.6947 37.0689 49.6263 37.0151C48.1217 37.8127 46.6354 38.6527 45.1026 39.3923C44.2952 39.7818 43.3905 39.9646 42.5549 40.3032C42.3291 40.3952 42.1922 40.7112 42.0157 40.9251C42.2444 41.105 42.4575 41.411 42.7045 41.4408C43.3157 41.5158 43.9438 41.4648 44.4336 41.4648C43.1096 42.295 41.4907 42.7894 39.8181 43.111C38.6847 43.3292 38.6353 43.3872 39.2606 44.3407C39.2747 44.3619 39.1575 44.5262 39.0912 44.5319C38.5577 44.5872 38.0157 44.5886 37.4892 44.6778C37.2648 44.7161 36.9175 44.9045 36.8978 45.0603C36.871 45.2629 37.0587 45.5845 37.2492 45.712C38.2443 46.375 39.3029 46.9431 40.274 47.6387C41.0828 48.2167 41.7913 48.9321 42.5591 49.571C43.1858 50.0937 43.845 50.5768 44.466 51.1053C44.7667 51.3617 45.0123 51.6832 45.279 51.9779C47.3341 54.2389 48.9587 56.7663 49.9792 59.6647C50.0723 59.9282 50.126 60.2073 50.1796 60.4822C50.2459 60.8264 50.2911 61.1763 50.3462 61.5234C50.1104 61.2443 49.8987 60.9397 49.6348 60.6918C48.7724 59.8815 47.9029 59.0768 47.0052 58.3076C46.874 58.1957 46.5112 58.1999 46.3658 58.3048C46.2346 58.4011 46.1838 58.717 46.2162 58.9168C46.6651 61.6722 46.7653 64.4233 46.0779 67.1518C45.7025 68.6422 45.2395 70.1113 44.8104 71.5874C44.7808 71.6923 44.7031 71.7829 44.6396 71.8934C44.339 70.2062 44.0948 68.5444 43.7307 66.911C43.5246 65.9831 43.1505 65.0877 42.7821 64.2066C42.696 63.9997 42.339 63.8482 42.0821 63.8C41.9889 63.783 41.7334 64.1329 41.7094 64.3341C41.413 66.8246 40.4518 69.0813 39.2521 71.2361C38.497 72.5947 37.6063 73.8768 36.7736 75.1928C36.7256 75.2679 36.6578 75.3303 36.7228 75.2552C36.8456 73.4532 36.9811 71.5194 37.1109 69.5857C37.1518 68.9808 37.2408 68.3702 37.1843 67.7738C37.1617 67.5287 36.8117 67.3162 36.6113 67.0881C36.4094 67.2808 36.1441 67.4394 36.0184 67.6732C35.0403 69.4893 33.9492 71.2219 32.4319 72.64C32.0678 72.9814 31.6218 73.2364 31.2181 73.5268C31.4227 72.8624 31.674 72.164 31.8504 71.4472C32.0466 70.6538 32.2132 69.8478 32.3148 69.0374C32.3472 68.781 32.1299 68.4934 32.0283 68.22C31.7389 68.4042 31.3649 68.526 31.1786 68.7852C30.7721 69.3491 30.4714 69.988 30.1087 70.5858C29.9181 70.8989 29.7205 70.9641 29.3916 70.6637C28.5194 69.8704 27.3916 69.6523 26.2808 69.5432C25.9999 69.5148 25.5991 69.9923 25.3676 70.3195C24.9074 70.9683 24.5278 71.6738 24.1283 72.334C24.1749 71.0406 24.2469 69.8208 24.2554 68.6011C24.261 67.8205 23.9928 67.6179 23.2066 67.6732C22.9046 67.6944 22.6025 67.7341 22.3019 67.7794C22.1622 67.8007 22.0267 67.8517 21.8883 67.8885C21.9561 67.7454 21.9857 67.5527 22.0972 67.4649C22.6392 67.0428 23.2095 66.656 23.7571 66.2409C23.9985 66.0582 24.3499 65.8655 24.3965 65.6275C24.4304 65.4504 24.093 65.1189 23.8503 64.99C23.4734 64.7888 23.5609 64.6245 23.798 64.429C24.6308 63.7462 25.3323 63.8992 25.7303 64.8838C25.9138 65.3357 26.0084 65.8258 26.1312 66.3018C26.3062 66.979 26.652 67.1943 27.1587 66.7665C28.0324 66.0284 28.9117 65.2549 29.6048 64.3525C31.5893 61.7657 32.1906 58.7808 31.7968 55.5791C31.729 55.0266 31.5681 54.4698 31.3508 53.957C31.2505 53.7218 30.9076 53.5901 30.6747 53.413C30.5406 53.6453 30.2809 53.8833 30.2922 54.11C30.3768 55.9871 30.1383 57.8061 29.4058 59.5387C29.1912 60.0444 28.8934 60.5303 28.5518 60.9596C28.4474 61.0913 28.0169 61.1041 27.8292 61.0021C26.6944 60.3773 25.513 59.9297 24.2144 59.8008C23.6611 59.7455 23.1163 59.5557 22.5672 59.5528C22.3174 59.5514 21.9871 59.7993 21.8305 60.0288C21.3365 60.7457 20.9074 61.5078 20.4162 62.3125C20.5347 61.1834 20.7055 60.1946 20.7281 59.2015C20.7563 57.9052 20.1395 57.5341 18.9215 58.003C18.7775 58.0583 18.6138 58.0667 18.4599 58.0979C18.5192 57.9308 18.5291 57.6942 18.6476 57.6077C19.112 57.2635 19.6272 56.9887 20.0901 56.643C20.3315 56.4617 20.5023 56.1854 20.7055 55.9531C20.498 55.7732 20.2779 55.606 20.0901 55.4077C20.028 55.3411 20.0097 55.1116 20.0351 55.1003C20.4868 54.8948 20.9384 54.6767 21.4155 54.5619C21.4903 54.5435 21.7204 55.0096 21.8135 55.2745C22.021 55.861 22.2017 56.4574 22.364 57.0581C22.5009 57.5695 22.9173 57.7522 23.2744 57.5497C24.1481 57.0552 25.1093 56.6643 25.5906 55.6315C26.1015 54.5364 26.1044 53.4966 25.7049 52.3732C25.3916 51.4934 24.7409 50.9352 24.1184 50.3218C22.731 48.9547 20.93 48.4263 19.1487 47.922C16.1324 47.0692 13.0371 46.7433 9.90929 47.0026C7.90925 47.1683 5.91768 47.4786 4.0969 48.4008C3.45469 48.7267 2.82941 49.1276 2.29447 49.605C1.97971 49.8855 1.75529 50.3672 1.68049 50.7907C1.59721 51.2682 1.37561 51.2696 1.17095 51.0174C0.751749 50.5032 0.146234 49.9393 0.10389 49.3599C-0.0132609 47.7775 -0.226394 46.2348 0.763039 44.6538C2.05452 42.5897 3.6664 41.139 5.93744 40.4519C7.38419 40.0142 8.89163 39.7818 10.3638 39.422C14.33 38.4502 18.0943 36.9938 21.3111 34.4056C22.4063 33.5244 23.3464 32.4308 24.2709 31.3583C25.3817 30.0706 26.0747 28.5349 26.5363 26.8972C26.6675 26.4312 26.9385 26.1549 27.4283 26.0373C29.1192 25.6308 30.8257 25.2667 32.4827 24.7453C34.0735 24.2452 35.643 23.6432 37.1617 22.9533C39.9973 21.6627 42.8259 20.348 45.5867 18.9058C47.7575 17.7725 49.8197 16.4281 51.9341 15.1871C52.8204 14.6672 53.7351 14.194 54.6073 13.6528C55.6052 13.0352 56.5975 12.4005 57.546 11.7106C60.0104 9.91708 62.4508 8.08817 64.9011 6.27342C64.9392 6.24508 64.9745 6.21108 65.0183 6.1955C65.2018 6.1275 65.3867 6.06375 65.5716 6C65.4996 6.16858 65.46 6.36692 65.3485 6.50292C64.9971 6.92933 64.6061 7.32317 64.2547 7.74817C64.0147 8.03717 63.8143 8.35875 63.5955 8.66617C63.11 9.34617 62.64 10.0389 62.1304 10.7005C61.8354 11.083 61.4755 11.4145 61.148 11.7729C60.8587 12.0888 60.5722 12.4062 60.2885 12.7263C59.2821 13.8625 58.2856 15.0072 57.2708 16.1363C56.6243 16.8559 55.951 17.5501 55.2905 18.257C55.011 18.5545 54.685 18.8237 54.4719 19.1637C54.3363 19.3804 54.3702 19.7034 54.3279 19.9797C54.6398 20.0123 54.9898 20.1482 55.2566 20.0519C55.5841 19.9315 55.824 19.5901 56.1331 19.3932C57.8156 18.3278 59.5333 17.3163 61.1861 16.2071C62.0613 15.6206 62.8291 14.8712 63.7522 14.2974C62.7204 15.5342 61.6435 16.7355 60.6653 18.0133C59.0845 20.0774 57.2736 21.912 55.3272 23.6191C54.8176 24.0653 54.2968 24.5243 53.7082 24.8445C53.1888 25.1278 52.8952 25.5118 53.1112 26.0019C53.3582 26.5601 53.9143 26.2682 54.2884 26.1011C55.7379 25.4537 57.1663 24.7553 58.6032 24.0795C58.7486 24.0115 58.9024 23.9633 59.0534 23.9095C59.2694 23.833 59.4868 23.7622 59.7041 23.6885C59.5446 23.8854 59.4105 24.1121 59.2228 24.275C58.5227 24.8828 57.7662 25.4296 57.1028 26.0742C55.0124 28.1014 52.7146 29.851 50.2375 31.3697C50.198 31.3937 50.1655 31.4391 50.1246 31.4518C49.632 31.6048 49.1634 31.891 49.4725 32.4293C49.5967 32.6461 50.2657 32.707 50.6171 32.6036C51.9919 32.1984 53.3399 31.6983 54.6991 31.2337C54.7259 31.2521 54.7584 31.2691 54.7923 31.2875ZM0.932415 47.5763C0.932415 47.9532 0.914066 48.3314 0.940884 48.7068C0.952176 48.8712 1.05238 49.0284 1.11308 49.1899C1.26552 49.0822 1.43348 48.9902 1.56898 48.8641C2.24366 48.2337 2.91128 47.5933 3.58031 46.9558C3.72852 46.8156 3.87107 46.6682 4.01504 46.5252C3.8259 46.4288 3.63676 46.3339 3.44904 46.2362C3.33189 46.1753 3.21615 46.1115 3.10041 46.0492C3.48292 45.7786 3.98398 45.2034 4.22534 45.2983C4.83509 45.5363 5.14138 45.2105 5.53094 44.9541C6.1167 44.5702 6.70528 44.1877 7.27692 43.7839C7.459 43.655 7.59308 43.4595 7.74834 43.2952C7.54368 43.2385 7.33902 43.179 7.13295 43.1252C7.00874 43.0926 6.88312 43.0657 6.75891 43.0373C6.83231 42.9268 6.88171 42.7753 6.98475 42.7129C7.72576 42.2653 8.48371 41.8459 9.22049 41.3926C9.41669 41.2722 9.55783 41.0611 9.72297 40.8925C9.46891 40.8571 9.18097 40.7253 8.96502 40.8004C7.37854 41.3458 5.70455 41.7496 4.25357 42.5528C2.35375 43.5983 0.818087 45.0929 0.932415 47.5763Z" fill="white"/>
<path d="M46.5665 7.85967C46.2236 8.68417 46.0203 9.38683 45.6604 9.99458C44.551 11.8745 43.419 13.7431 42.2221 15.5649C41.6631 16.4149 40.9066 17.1318 40.2898 17.9463C40.0442 18.2708 39.9327 18.6957 39.7591 19.0754C40.1416 19.1576 40.5227 19.2454 40.9066 19.3162C41.0181 19.3375 41.1395 19.3092 41.3018 19.4183C40.5975 19.737 39.896 20.0628 39.1889 20.3745C37.5417 21.0998 35.9312 21.9357 34.2332 22.5137C31.5359 23.4317 28.8626 24.5012 25.955 24.6302C25.7631 24.6387 25.4652 24.8923 25.4144 25.0849C24.9091 26.9719 24.2909 28.8122 23.0996 30.3847C21.8166 32.0776 20.2965 33.5212 18.4178 34.5539C17.6302 34.9874 16.8624 35.4535 16 35.9536C16.9019 34.6942 17.8208 33.6302 18.4941 32.4275C19.8787 29.954 20.6536 27.319 19.9662 24.4361C19.8956 24.14 19.818 23.8283 19.8406 23.5322C19.8561 23.3311 19.9916 23.052 20.1567 22.9613C21.7206 22.1142 23.3523 21.3832 24.8682 20.4581C26.9233 19.2043 28.9191 17.8486 30.8867 16.4588C31.8888 15.7519 32.7907 14.8963 33.7025 14.0703C35.464 12.4766 37.2241 10.8786 38.939 9.23383C39.7266 8.47875 40.4055 7.61033 41.1338 6.79292C41.6321 6.23617 42.1332 5.68225 42.63 5.12408C43.6491 3.97517 44.6808 2.83758 45.6773 1.66883C46.1488 1.11633 46.5482 0.502917 47.1198 0C46.2405 1.99325 45.4219 4.01625 44.4621 5.96983C43.6081 7.71092 42.5806 9.367 41.6801 11.0854C41.5502 11.3348 41.6942 11.7286 41.7125 12.0544C42.0612 12.0077 42.5368 12.0898 42.7358 11.8915C43.9878 10.6448 45.1819 9.333 46.5665 7.85967Z" fill="white"/>
</svg>
