<svg width="100" height="131" viewBox="0 0 100 131" fill="none" xmlns="http://www.w3.org/2000/svg">
<path d="M16.2244 120.288V121.659H13.1683V127.379H11.5341V120.288H16.2244ZM30.1744 130.038V120.288H31.8178V121.461H31.9148C32.0009 121.288 32.1225 121.105 32.2795 120.911C32.4364 120.714 32.6488 120.546 32.9165 120.408C33.1843 120.266 33.5259 120.196 33.9414 120.196C34.4892 120.196 34.9832 120.336 35.4233 120.616C35.8665 120.893 36.2173 121.304 36.4758 121.848C36.7374 122.39 36.8682 123.055 36.8682 123.843C36.8682 124.621 36.7405 125.283 36.4851 125.828C36.2296 126.372 35.8819 126.788 35.4418 127.074C35.0017 127.36 34.5031 127.503 33.946 127.503C33.5398 127.503 33.2028 127.436 32.935 127.3C32.6673 127.165 32.4518 127.002 32.2887 126.811C32.1287 126.617 32.004 126.434 31.9148 126.262H31.8455V130.038H30.1744ZM31.8132 123.833C31.8132 124.292 31.8778 124.694 32.0071 125.038C32.1394 125.383 32.3287 125.652 32.5749 125.846C32.8242 126.037 33.1258 126.132 33.4798 126.132C33.8491 126.132 34.1584 126.034 34.4077 125.837C34.657 125.637 34.8447 125.365 34.9709 125.02C35.1001 124.672 35.1648 124.277 35.1648 123.833C35.1648 123.393 35.1017 123.002 34.9755 122.661C34.8493 122.319 34.6616 122.051 34.4123 121.858C34.163 121.664 33.8521 121.567 33.4798 121.567C33.1227 121.567 32.8196 121.661 32.5703 121.848C32.321 122.036 32.1317 122.299 32.0025 122.638C31.8763 122.976 31.8132 123.375 31.8132 123.833ZM52.5205 125.117L55.3596 120.288H57.077V127.379H55.4612V122.545L52.6313 127.379H50.9094V120.288H52.5205V125.117ZM74.6208 129.789V117.924H76.2966V129.789H74.6208ZM74.6208 127.517C74.1007 127.517 73.6252 127.43 73.1943 127.254C72.7635 127.079 72.3911 126.829 72.0771 126.506C71.7663 126.183 71.5247 125.798 71.3524 125.352C71.1831 124.903 71.0985 124.406 71.0985 123.861C71.0985 123.316 71.1831 122.819 71.3524 122.37C71.5247 121.921 71.7663 121.534 72.0771 121.211C72.3911 120.885 72.7635 120.634 73.1943 120.459C73.6252 120.283 74.1007 120.196 74.6208 120.196H74.9763V127.517H74.6208ZM74.6208 126.169H74.8286V121.544H74.6208C74.3254 121.544 74.0638 121.605 73.836 121.728C73.6114 121.848 73.4221 122.016 73.2682 122.231C73.1174 122.444 73.002 122.69 72.922 122.97C72.845 123.247 72.8065 123.544 72.8065 123.861C72.8065 124.283 72.8758 124.669 73.0143 125.02C73.1528 125.368 73.3559 125.646 73.6237 125.855C73.8945 126.065 74.2269 126.169 74.6208 126.169ZM76.2966 127.517H75.9411V120.196H76.2966C76.8167 120.196 77.2922 120.283 77.7231 120.459C78.154 120.634 78.5248 120.885 78.8357 121.211C79.1496 121.534 79.3912 121.921 79.5605 122.37C79.7328 122.819 79.819 123.316 79.819 123.861C79.819 124.406 79.7328 124.903 79.5605 125.352C79.3912 125.798 79.1496 126.183 78.8357 126.506C78.5248 126.829 78.154 127.079 77.7231 127.254C77.2922 127.43 76.8167 127.517 76.2966 127.517ZM76.2966 126.169C76.5951 126.169 76.8567 126.109 77.0814 125.989C77.3061 125.869 77.4938 125.703 77.6446 125.491C77.7985 125.278 77.9139 125.034 77.9909 124.757C78.0678 124.477 78.1063 124.178 78.1063 123.861C78.1063 123.439 78.0386 123.053 77.9031 122.702C77.7677 122.352 77.5646 122.071 77.2938 121.862C77.026 121.65 76.6936 121.544 76.2966 121.544H76.0889V126.169H76.2966Z" fill="white"/>
<path d="M83.561 47.715C82.9389 48.1018 82.2996 48.4647 81.6991 48.8817C80.9629 49.3937 80.2913 50.0073 79.5314 50.4783C77.3982 51.7962 75.2414 53.0731 73.0802 54.3413C72.4711 54.6977 71.7543 54.8922 71.1925 55.307C70.8889 55.5295 70.6672 56.0675 70.6866 56.4477C70.6974 56.653 71.3195 57.0203 71.623 56.9814C72.9489 56.8172 74.262 56.532 75.6827 56.4499C73.388 57.6663 71.1214 58.9474 68.7838 60.0752C67.5525 60.6693 66.1727 60.948 64.8984 61.4644C64.554 61.6048 64.3452 62.0866 64.0761 62.4128C64.4249 62.6872 64.7499 63.1539 65.1266 63.1993C66.0586 63.3138 67.0165 63.236 67.7635 63.236C65.7444 64.502 63.2754 65.2561 60.7246 65.7465C58.9961 66.0792 58.9208 66.1678 59.8744 67.6218C59.8959 67.6542 59.7172 67.9048 59.6161 67.9134C58.8024 67.9977 57.9758 67.9999 57.1729 68.136C56.8307 68.1943 56.3012 68.4817 56.271 68.7193C56.2301 69.0283 56.5164 69.5187 56.807 69.7131C58.3245 70.7243 59.939 71.5906 61.4199 72.6514C62.6533 73.5329 63.7339 74.6239 64.9049 75.5983C65.8606 76.3955 66.8658 77.1323 67.813 77.9381C68.2715 78.3292 68.646 78.8196 69.0528 79.269C72.1869 82.7171 74.6645 86.5714 76.2208 90.9918C76.3629 91.3937 76.4447 91.8193 76.5265 92.2384C76.6276 92.7634 76.6965 93.297 76.7805 93.8264C76.421 93.4007 76.0981 92.9362 75.6956 92.5582C74.3804 91.3223 73.0544 90.0952 71.6854 88.9221C71.4852 88.7514 70.932 88.7579 70.7103 88.9177C70.5101 89.0647 70.4326 89.5464 70.4821 89.8511C71.1666 94.0532 71.3195 98.2489 70.2712 102.41C69.6986 104.683 68.9926 106.923 68.3382 109.174C68.293 109.334 68.1746 109.473 68.0777 109.641C67.6192 107.068 67.2469 104.534 66.6915 102.043C66.3772 100.628 65.8068 99.2622 65.245 97.9183C65.1137 97.6029 64.5691 97.3717 64.1773 97.2983C64.0352 97.2723 63.6456 97.806 63.609 98.1128C63.157 101.911 61.6911 105.353 59.8615 108.639C58.7098 110.711 57.3516 112.666 56.0816 114.673C56.0084 114.787 55.9051 114.882 56.0041 114.768C56.1914 112.02 56.398 109.071 56.5961 106.122C56.6585 105.199 56.7941 104.268 56.708 103.358C56.6735 102.985 56.1397 102.661 55.834 102.313C55.5262 102.607 55.1215 102.849 54.93 103.205C53.4383 105.975 51.7743 108.617 49.4604 110.78C48.905 111.3 48.2248 111.689 47.6092 112.132C47.9213 111.119 48.3044 110.054 48.5735 108.961C48.8727 107.751 49.1267 106.521 49.2817 105.286C49.3312 104.895 48.9997 104.456 48.8447 104.039C48.4035 104.32 47.833 104.506 47.5489 104.901C46.929 105.761 46.4705 106.735 45.9173 107.647C45.6267 108.124 45.3253 108.224 44.8238 107.766C43.4935 106.556 41.7736 106.223 40.0796 106.057C39.6512 106.014 39.0399 106.742 38.6869 107.241C37.9851 108.23 37.4061 109.306 36.7969 110.313C36.868 108.341 36.9777 106.48 36.9907 104.62C36.9993 103.43 36.5903 103.121 35.3913 103.205C34.9307 103.237 34.47 103.298 34.0115 103.367C33.7984 103.399 33.5918 103.477 33.3808 103.533C33.4842 103.315 33.5294 103.021 33.6994 102.887C34.526 102.244 35.3956 101.654 36.2308 101.021C36.5989 100.742 37.1349 100.448 37.2059 100.085C37.2576 99.8152 36.7431 99.3097 36.3729 99.1131C35.7981 98.8063 35.9316 98.5557 36.2932 98.2575C37.5632 97.2162 38.633 97.4495 39.2401 98.951C39.5199 99.6402 39.6641 100.388 39.8514 101.114C40.1183 102.146 40.6457 102.475 41.4184 101.822C42.7509 100.697 44.0919 99.5171 45.1488 98.1409C48.1753 94.1958 49.0923 89.6437 48.4917 84.761C48.3884 83.9184 48.143 83.0693 47.8115 82.2872C47.6587 81.9286 47.1356 81.7276 46.7804 81.4576C46.5759 81.8119 46.1799 82.1749 46.1971 82.5205C46.3263 85.3832 45.9625 88.1572 44.8453 90.7995C44.5181 91.5708 44.0639 92.3119 43.543 92.9665C43.3837 93.1674 42.7272 93.1869 42.4409 93.0313C40.7103 92.0785 38.9086 91.3958 36.9282 91.1992C36.0844 91.115 35.2535 90.8254 34.4162 90.8211C34.0352 90.819 33.5315 91.197 33.2926 91.5471C32.5392 92.6403 31.8848 93.8026 31.1357 95.0298C31.3165 93.3078 31.577 91.7998 31.6114 90.2853C31.6545 88.3085 30.7138 87.7424 28.8562 88.4576C28.6366 88.5418 28.3869 88.5548 28.1523 88.6023C28.2427 88.3474 28.2578 87.9866 28.4386 87.8548C29.1468 87.3298 29.9325 86.9106 30.6385 86.3835C31.0066 86.1069 31.267 85.6856 31.577 85.3313C31.2606 85.0569 30.9248 84.802 30.6385 84.4995C30.5438 84.398 30.5158 84.048 30.5545 84.0307C31.2434 83.7174 31.9322 83.3847 32.6597 83.2097C32.7738 83.1816 33.1247 83.8924 33.2668 84.2964C33.5832 85.1909 33.8587 86.1005 34.1062 87.0165C34.315 87.7964 34.95 88.0751 35.4946 87.7662C36.8271 87.0122 38.2929 86.4159 39.027 84.8409C39.8062 83.1708 39.8105 81.585 39.2013 79.8718C38.7235 78.5301 37.7311 77.6789 36.7819 76.7434C34.6659 74.6585 31.9193 73.8526 29.2027 73.0835C24.6028 71.7829 19.8822 71.286 15.1122 71.6813C12.062 71.9341 9.02477 72.4073 6.24799 73.8138C5.26858 74.3107 4.315 74.9221 3.49918 75.6502C3.01916 76.0779 2.67691 76.8125 2.56283 77.4585C2.43583 78.1866 2.09788 78.1887 1.78576 77.8042C1.14646 77.0199 0.223014 76.16 0.158438 75.2764C-0.0202235 72.8631 -0.345262 70.5104 1.16367 68.0993C3.13325 64.9514 5.59145 62.7391 9.0549 61.6912C11.2613 61.0237 13.5602 60.6693 15.8053 60.1206C21.854 58.6385 27.5948 56.4175 32.5004 52.4703C34.1708 51.1264 35.6044 49.4586 37.0143 47.8231C38.7084 45.8592 39.7653 43.5172 40.4692 41.0197C40.6694 40.3089 41.0826 39.8876 41.8296 39.7083C44.4083 39.0882 47.0108 38.533 49.5378 37.7379C51.9638 36.9752 54.3574 36.057 56.6735 35.0049C60.998 33.0367 65.3117 31.0317 69.5221 28.8324C72.8327 27.104 75.9776 25.0537 79.2021 23.1611C80.5539 22.3682 81.9487 21.6466 83.279 20.8213C84.8009 19.8793 86.3141 18.9114 87.7606 17.8592C91.519 15.1241 95.2407 12.3349 98.9775 9.56728C99.0357 9.52407 99.0895 9.47221 99.1562 9.44845C99.436 9.34474 99.718 9.24752 100 9.1503C99.8902 9.4074 99.8299 9.70987 99.6599 9.91727C99.1239 10.5676 98.5276 11.1682 97.9917 11.8163C97.6257 12.2571 97.3201 12.7475 96.9864 13.2163C96.246 14.2534 95.5292 15.3099 94.7521 16.3188C94.3022 16.9021 93.7533 17.4077 93.2539 17.9543C92.8126 18.4361 92.3757 18.92 91.943 19.4083C90.4082 21.141 88.8885 22.8867 87.3409 24.6086C86.355 25.7061 85.3282 26.7648 84.3208 27.8429C83.8946 28.2966 83.3974 28.7071 83.0724 29.2256C82.8657 29.5561 82.9174 30.0487 82.8528 30.47C83.3285 30.5197 83.8623 30.7271 84.2692 30.5802C84.7686 30.3966 85.1345 29.8759 85.6059 29.5756C88.1718 27.9509 90.7914 26.4083 93.312 24.7166C94.6466 23.8222 95.8176 22.6793 97.2254 21.8043C95.6519 23.6904 94.0095 25.5225 92.5177 27.4713C90.1069 30.6191 87.3452 33.4169 84.3768 36.0203C83.5997 36.7009 82.8055 37.4009 81.9078 37.8891C81.1157 38.3212 80.668 38.9067 80.9973 39.6543C81.374 40.5055 82.2221 40.0604 82.7925 39.8055C85.0032 38.8181 87.1816 37.753 89.3729 36.7225C89.5946 36.6188 89.8292 36.5453 90.0595 36.4632C90.3889 36.3465 90.7204 36.2385 91.0518 36.1262C90.8086 36.4265 90.6041 36.7722 90.3178 37.0206C89.2502 37.9475 88.0964 38.7814 87.0847 39.7644C83.8968 42.8561 80.3924 45.5243 76.6147 47.8403C76.5545 47.8771 76.5049 47.9462 76.4425 47.9657C75.6913 48.199 74.9766 48.6354 75.448 49.4564C75.6375 49.7869 76.6578 49.8798 77.1937 49.7221C79.2903 49.1042 81.346 48.3416 83.4189 47.6329C83.4598 47.661 83.5093 47.687 83.561 47.715ZM1.42198 72.5563C1.42198 73.131 1.394 73.7079 1.4349 74.2804C1.45212 74.531 1.60494 74.7708 1.6975 75.0171C1.92998 74.8529 2.18614 74.7125 2.39278 74.5202C3.4217 73.5588 4.43985 72.5823 5.46016 71.6101C5.68618 71.3962 5.90357 71.1715 6.12313 70.9533C5.83469 70.8063 5.54625 70.6616 5.25996 70.5125C5.0813 70.4196 4.9048 70.3224 4.72829 70.2273C5.31163 69.8147 6.07578 68.9375 6.44386 69.0823C7.37376 69.4452 7.84087 68.9483 8.43497 68.5573C9.32827 67.9718 10.2259 67.3885 11.0977 66.7727C11.3754 66.5761 11.5798 66.278 11.8166 66.0273C11.5045 65.9409 11.1924 65.8502 10.8781 65.7681C10.6887 65.7184 10.4971 65.6773 10.3077 65.6341C10.4196 65.4656 10.495 65.2345 10.6521 65.1394C11.7822 64.4567 12.9381 63.8172 14.0617 63.1258C14.3609 62.9422 14.5762 62.6203 14.828 62.3632C14.4406 62.3091 14.0015 62.1082 13.6721 62.2227C11.2527 63.0545 8.69973 63.6703 6.48692 64.8953C3.58959 66.4897 1.24763 68.769 1.42198 72.5563Z" fill="white"/>
<path d="M71.0164 11.9864C70.4934 13.2438 70.1834 14.3154 69.6345 15.2423C67.9426 18.1092 66.2163 20.9589 64.3909 23.7373C63.5385 25.0336 62.3847 26.1268 61.4441 27.3691C61.0695 27.8638 60.8995 28.512 60.6347 29.091C61.218 29.2163 61.7992 29.3502 62.3847 29.4583C62.5548 29.4907 62.7399 29.4475 62.9874 29.6138C61.9133 30.0999 60.8435 30.5969 59.7651 31.0722C57.2531 32.1783 54.797 33.453 52.2075 34.3345C48.094 35.7345 44.017 37.3657 39.5828 37.5623C39.29 37.5752 38.8359 37.962 38.7584 38.2558C37.9878 41.1336 37.0449 43.94 35.2282 46.3382C33.2715 48.92 30.9532 51.1215 28.0882 52.6965C26.8871 53.3576 25.7161 54.0684 24.4009 54.8311C25.7764 52.9104 27.1777 51.2879 28.2044 49.4536C30.3161 45.6814 31.4978 41.6629 30.4495 37.2663C30.3419 36.8147 30.2235 36.3394 30.258 35.8879C30.2816 35.5811 30.4883 35.1555 30.7401 35.0172C33.1252 33.7252 35.6135 32.6104 37.9253 31.1996C41.0594 29.2876 44.1031 27.22 47.1038 25.1006C48.6321 24.0225 50.0076 22.7175 51.3981 21.458C54.0845 19.0274 56.7687 16.5904 59.3841 14.0821C60.5852 12.9305 61.6206 11.6061 62.7313 10.3595C63.4911 9.51047 64.2553 8.66572 65.013 7.81449C66.5671 6.06233 68.1406 4.32746 69.6603 2.54506C70.3793 1.70247 70.9884 0.766974 71.8602 0C70.5192 3.03981 69.2707 6.12499 67.807 9.1043C66.5047 11.7595 64.9376 14.2852 63.5643 16.9058C63.3663 17.2861 63.5858 17.8867 63.6138 18.3836C64.1455 18.3123 64.8709 18.4376 65.1744 18.1351C67.0837 16.2339 68.9048 14.2333 71.0164 11.9864Z" fill="white"/>
</svg>
