<svg width="46" height="56" viewBox="0 0 46 56" fill="none" xmlns="http://www.w3.org/2000/svg">
<path d="M37.398 47.2272C36.8684 46.6305 36.3534 46.056 35.8474 45.4769C35.5131 45.0951 35.5726 44.6244 36.0034 44.3214C36.1358 44.2279 36.3074 44.1621 36.4746 44.113C37.2196 43.8906 37.969 43.6784 38.7409 43.456C38.7095 43.3727 38.6837 43.2957 38.6523 43.2198C38.2854 42.3358 37.9163 41.4528 37.5494 40.5698C37.2633 39.8804 37.7256 39.3449 38.6074 39.344C39.9862 39.3421 41.3651 39.3439 42.744 39.343C43.0839 39.343 43.1164 39.306 42.9975 39.0447C41.7084 36.1964 40.4193 33.3491 39.1291 30.5008C38.9372 30.0774 38.7465 29.653 38.5502 29.2314C38.4133 28.9368 38.4268 28.6505 38.585 28.3651C38.9967 27.6238 39.4062 26.8817 39.8135 26.1395C39.8505 26.0709 39.883 25.9931 39.8842 25.919C39.8886 24.8099 39.8875 23.7008 39.8864 22.5926C39.8864 22.5639 39.8808 22.5352 39.8763 22.4953C38.3617 22.4953 36.8583 22.4953 35.328 22.4953C35.328 22.5657 35.328 22.6297 35.328 22.6936C35.328 23.5822 35.3392 24.4707 35.3201 25.3584C35.3156 25.5715 35.2551 25.8013 35.1417 25.9922C34.1499 27.659 33.1369 29.3167 32.1372 30.9799C31.9285 31.3273 31.6065 31.4885 31.1364 31.4876C24.9781 31.4848 18.8199 31.4867 12.6616 31.483C12.4742 31.483 12.3429 31.5265 12.2105 31.6377C9.77595 33.6576 7.33798 35.6738 4.89553 37.6882C4.76875 37.7929 4.71042 37.8939 4.71154 38.0449C4.71827 40.126 4.71827 42.2061 4.71154 44.2872C4.71154 44.4373 4.76651 44.5012 4.93704 44.5522C6.33273 44.9719 7.26393 46.0513 7.30769 47.2874C7.35145 48.503 6.50551 49.6158 5.15919 50.1116C2.6483 51.0372 -0.167753 49.4009 0.0644871 47.1401C0.193509 45.879 1.02486 45.0275 2.4284 44.5531C2.6023 44.4947 2.64382 44.4252 2.64382 44.2835C2.63933 42.0653 2.64381 39.848 2.63708 37.6298C2.63596 37.3111 2.75825 37.0581 3.032 36.832C5.73811 34.5981 8.44085 32.3614 11.1402 30.1219C11.4218 29.8874 11.7382 29.7744 12.1421 29.7772C13.3762 29.7874 14.6115 29.7809 15.8456 29.7809C15.9309 29.7809 16.0173 29.7809 16.1351 29.7809C16.1351 29.7058 16.1351 29.6493 16.1351 29.5919C16.1351 28.1196 16.1339 26.6463 16.1373 25.174C16.1373 25.0628 16.1014 24.9887 15.9959 24.9155C14.9683 24.1928 13.9451 23.4663 12.9207 22.7399C12.6436 22.5435 12.4978 22.2998 12.4989 21.9903C12.5034 19.7369 12.5011 17.4835 12.5011 15.2292C12.5011 14.7029 12.9387 14.3406 13.5726 14.3397C15.4204 14.3388 17.2693 14.3406 19.1172 14.3388C19.5581 14.3388 19.9261 14.4574 20.2357 14.7261C20.6823 15.1152 21.1512 15.4877 21.6056 15.8713C21.6931 15.9454 21.7604 15.9621 21.8827 15.9149C24.1423 15.0504 26.6824 16.1891 27.0436 18.2238C27.3421 19.9083 25.8151 21.4863 23.7597 21.6151C21.8726 21.7337 20.2952 20.7738 19.8913 19.2458C19.7208 18.5991 19.8116 17.9644 20.1493 17.3612C20.2111 17.2519 20.2054 17.1861 20.0977 17.0999C19.7039 16.7849 19.3225 16.4587 18.9298 16.1419C18.8748 16.0974 18.7828 16.0594 18.7088 16.0594C17.3658 16.0548 16.0229 16.0566 14.6799 16.0566C14.653 16.0566 14.6249 16.0631 14.5857 16.0677C14.5823 16.1307 14.5756 16.1891 14.5756 16.2466C14.5756 17.9996 14.5767 19.7527 14.5722 21.5048C14.5722 21.6225 14.6126 21.7022 14.7214 21.7791C15.6998 22.4666 16.6669 23.1661 17.6519 23.8462C18.0356 24.1112 18.2151 24.4189 18.2118 24.8367C18.1972 26.4045 18.2062 27.9732 18.2062 29.5409C18.2062 29.6113 18.2062 29.6817 18.2062 29.7661C18.8995 29.7661 19.5727 29.7661 20.2784 29.7661C20.2784 29.6854 20.2784 29.6104 20.2784 29.5353C20.2784 28.0751 20.2784 26.6139 20.2784 25.1536C20.2784 24.5458 20.6957 24.2002 21.4295 24.2002C23.8843 24.2002 26.3391 24.2002 28.7938 24.2002C28.8858 24.2002 28.9778 24.2002 29.0945 24.2002C29.0945 24.1242 29.0945 24.0658 29.0945 24.0084C29.0945 21.5159 29.0934 19.0244 29.099 16.5319C29.099 16.3957 29.0485 16.3383 28.8971 16.2901C27.3499 15.7907 26.4692 14.7029 26.4961 13.3362C26.523 11.9547 27.9187 10.6835 29.5904 10.5176C31.4113 10.3369 32.8766 11.0661 33.5508 12.4893C33.5912 12.5737 33.6271 12.6255 33.7584 12.6246C34.8265 12.6191 35.8957 12.6218 36.9638 12.6209C36.9907 12.6209 37.0165 12.6163 37.0861 12.6107C36.8415 12.2688 36.6193 11.9455 36.3826 11.6286C34.9757 9.74023 33.2064 8.11596 31.0848 6.76132C28.298 4.98232 25.1801 3.75833 21.7672 3.03746C19.1766 2.48986 16.5468 2.27027 13.8766 2.32679C12.8108 2.34903 11.7427 2.33142 10.6757 2.33235C10.5983 2.33235 10.5209 2.33235 10.4211 2.33235C10.4211 2.41574 10.4211 2.47967 10.4211 2.5436C10.4211 4.30222 10.4222 6.06084 10.4177 7.82039C10.4177 7.94177 10.4536 8.02886 10.5613 8.11689C11.6473 9.00732 12.7289 9.90145 13.8071 10.7984C13.9069 10.8808 14.0056 10.9142 14.1459 10.9142C15.8131 10.9105 17.4814 10.9142 19.1486 10.9068C19.254 10.9068 19.3864 10.8586 19.4594 10.7965C19.8318 10.4806 20.1852 10.1488 20.5544 9.8301C20.6587 9.74023 20.6755 9.67259 20.6105 9.55584C19.8442 8.18823 20.3827 6.59176 21.9108 5.77453C24.1255 4.58946 27.1558 5.64759 27.4935 7.90563C27.7392 9.55121 26.4524 10.9837 24.5024 11.2515C23.7608 11.3534 23.0495 11.2663 22.3696 11.0133C22.2216 10.9577 22.1464 10.9809 22.0432 11.068C21.5596 11.4785 21.0626 11.8769 20.5824 12.2901C20.3154 12.5208 20.0057 12.6255 19.6198 12.6246C17.6059 12.6191 15.5909 12.6209 13.5771 12.6237C13.2618 12.6237 13.0049 12.5357 12.7838 12.3522C11.4196 11.22 10.0519 10.0895 8.68318 8.95913C8.45094 8.76734 8.34099 8.54033 8.34099 8.26977C8.34324 6.02841 8.34099 3.78613 8.34212 1.54477C8.34212 0.974931 8.77742 0.615423 9.4618 0.614497C11.3534 0.611717 13.245 0.594114 15.1365 0.609865C19.3258 0.644148 23.3469 1.34463 27.1401 2.82343C32.1664 4.78218 36.1189 7.71754 38.8183 11.7574C40.0457 13.5957 40.8759 15.5563 41.3898 17.6105C41.7645 19.1087 41.9665 20.6218 41.9597 22.1534C41.953 23.4589 41.9642 24.7645 41.9519 26.07C41.9496 26.2655 41.8935 26.474 41.7993 26.6547C41.447 27.3329 41.0712 28.0028 40.6964 28.6718C40.6336 28.783 40.628 28.8747 40.6807 28.9905C42.1179 32.1547 43.5506 35.3208 44.9834 38.4869C45.3356 39.2661 45.1404 40.0509 44.4516 40.5716C44.0129 40.9034 43.4878 41.0627 42.8921 41.0627C41.9968 41.0618 41.1015 41.0627 40.2061 41.0627C40.1287 41.0627 40.0513 41.0627 39.9459 41.0627C39.9795 41.1526 40.0042 41.2202 40.0311 41.287C40.3543 42.0884 40.6583 42.8964 41.0083 43.6905C41.2653 44.2723 40.8199 44.7236 40.2993 44.8663C39.6833 45.0349 39.0741 45.2184 38.4627 45.3963C38.4301 45.4055 38.3987 45.4194 38.3404 45.4398C38.438 45.5547 38.5266 45.6594 38.6164 45.7641C38.9384 46.1375 39.2637 46.51 39.5824 46.8853C39.9436 47.3096 39.8606 47.7951 39.3681 48.1222C38.8621 48.4586 38.3471 48.7847 37.8434 49.1248C37.7738 49.172 37.7177 49.2684 37.7155 49.3434C37.6941 50.0643 37.7267 50.7879 37.6639 51.506C37.4888 53.5019 35.5097 55.2299 33.1133 55.4671C32.2034 55.557 31.2857 55.4764 30.3791 55.3337C26.366 54.7008 22.5817 53.5398 18.9837 51.96C16.7892 50.9964 14.7517 49.841 13.006 48.3631C11.7764 47.3217 10.7532 46.1635 10.0946 44.8023C9.62112 43.823 9.38103 42.8065 9.38215 41.7521C9.38215 41.1795 9.38103 40.6078 9.38215 40.0352C9.38327 39.52 9.81185 39.1392 10.3975 39.1327C10.9955 39.1262 11.4488 39.4987 11.4577 40.0203C11.4667 40.5513 11.4701 41.0813 11.4577 41.6122C11.4207 43.2086 12.0815 44.6105 13.1956 45.8864C14.3288 47.1845 15.7671 48.2158 17.3479 49.1229C19.7623 50.5081 22.3932 51.5412 25.1453 52.3742C26.9079 52.9079 28.7018 53.3517 30.5564 53.6047C31.3317 53.7103 32.1136 53.8169 32.9024 53.7076C34.2745 53.5176 35.4233 52.5447 35.5804 51.405C35.6489 50.9103 35.6219 50.4053 35.6309 49.9059C35.6376 49.5538 35.6388 49.2026 35.6298 48.8505C35.6208 48.5197 35.7813 48.2631 36.092 48.0638C36.5228 47.784 36.9514 47.5125 37.398 47.2272ZM33.6182 14.3378C33.203 15.2978 32.4502 15.9704 31.2935 16.3133C31.1465 16.3568 31.1746 16.443 31.1746 16.5282C31.1746 18.7399 31.1746 20.9507 31.1746 23.1624C31.1746 23.7879 31.1779 24.4142 31.1735 25.0397C31.1701 25.4001 30.9715 25.6781 30.5721 25.8198C30.3803 25.8884 30.1525 25.9116 29.9416 25.9125C27.5014 25.919 25.0623 25.919 22.6221 25.9116C22.3988 25.9106 22.3472 25.9625 22.3495 26.1413C22.3596 27.2801 22.3596 28.4188 22.3495 29.5567C22.3472 29.7401 22.4089 29.7837 22.6266 29.7827C25.1891 29.7762 27.7516 29.7772 30.3141 29.7818C30.4857 29.7818 30.5811 29.7447 30.6607 29.6104C31.4899 28.2094 32.3313 26.814 33.1627 25.414C33.2176 25.3223 33.249 25.2111 33.2502 25.1091C33.2558 23.9704 33.2535 22.8326 33.2547 21.6938C33.2547 21.1323 33.6821 20.7775 34.3575 20.7765C36.0965 20.7765 37.8366 20.7765 39.5756 20.7765C39.6586 20.7765 39.7428 20.7765 39.8617 20.7765C39.7652 20.1391 39.6867 19.5294 39.5779 18.9234C39.3041 17.3927 38.815 15.9084 38.1418 14.4648C38.0936 14.3619 38.0274 14.3351 37.9028 14.336C37.1668 14.3406 36.4308 14.3378 35.6937 14.3378C35.0071 14.3378 34.3216 14.3378 33.6182 14.3378ZM5.23211 47.3671C5.22538 46.624 4.55896 46.0717 3.67375 46.0745C2.80425 46.0782 2.121 46.6342 2.12324 47.3383C2.12548 48.0907 2.79303 48.6522 3.68385 48.6494C4.55895 48.6467 5.23772 48.0842 5.23211 47.3671ZM24.9445 18.6325C24.9434 17.8912 24.2792 17.3408 23.3884 17.3436C22.5065 17.3455 21.83 17.9033 21.8379 18.6213C21.8446 19.3617 22.5177 19.9204 23.3962 19.9167C24.2702 19.913 24.9456 19.3524 24.9445 18.6325ZM25.4628 8.35038C25.4606 7.6045 24.8042 7.04948 23.919 7.0467C23.0417 7.04393 22.3517 7.60172 22.3539 8.31517C22.3551 9.06291 23.0327 9.62719 23.9213 9.62163C24.7863 9.61514 25.4651 9.0555 25.4628 8.35038ZM30.1458 12.1975C29.2381 12.2086 28.5672 12.758 28.5795 13.4798C28.5919 14.2396 29.2718 14.7752 30.2131 14.7659C31.0254 14.7585 31.7086 14.1572 31.6929 13.4622C31.6761 12.7497 30.9895 12.1873 30.1458 12.1975Z" fill="black"/>
</svg>
