<svg width="45" height="45" viewBox="0 0 45 45" fill="none" xmlns="http://www.w3.org/2000/svg">
<path d="M13.7674 44.5068C12.7032 44.4186 11.6406 44.3318 10.5764 44.2437C7.72946 44.0109 4.90158 43.6816 2.17953 42.807C0.677406 42.3248 0.540718 42.2505 0.868481 40.8055C1.1889 39.3881 1.62689 37.9734 2.21187 36.6331C2.93941 34.9691 4.28427 33.7721 6.05096 33.0296C7.71917 32.3285 9.40061 31.6563 11.0585 30.9345C11.6082 30.6948 11.9154 30.8394 12.2829 31.2458C13.7835 32.9043 15.6457 33.9071 18.0386 33.6578C19.8347 33.4718 21.3191 32.6453 22.4568 31.334C22.8698 30.856 23.2049 30.6879 23.8531 30.9827C25.0803 31.5392 26.3429 32.0337 27.6157 32.4952C31.3181 33.841 33.1451 36.5339 33.827 40.0437C34.2753 42.3524 34.2548 42.3607 31.8487 43.0301C28.7886 43.88 25.6374 44.1803 22.4685 44.3759C22.0099 44.4048 21.5528 44.4627 21.0943 44.5068C18.6515 44.5068 16.2101 44.5068 13.7674 44.5068Z" fill="black"/>
<path d="M44.8239 23.222C44.7005 23.6683 44.4962 23.9906 43.9009 23.9658C43.7128 23.9575 43.46 24.1531 43.3306 24.3198C43.0617 24.6697 42.8368 25.0526 42.631 25.4397C42.5399 25.6119 42.5178 25.8226 42.4958 26.0196C42.459 26.3502 42.5825 26.8613 42.4003 26.9811C41.8197 27.3668 41.1318 27.6134 40.4763 27.893C40.4131 27.9192 40.2338 27.82 40.1838 27.7387C39.5371 26.7097 38.4774 27.269 37.5985 27.1464C37.5279 27.1367 37.403 27.218 37.3662 27.2869C36.9179 28.1464 36.3241 27.769 35.748 27.4549C35.4761 27.3062 35.2174 27.1326 34.9646 26.9549C34.6339 26.7235 34.5501 26.4645 34.7221 26.0637C34.8279 25.8171 34.7485 25.4617 34.6515 25.1876C34.5383 24.8681 34.3517 24.554 34.1253 24.2936C33.9313 24.0719 33.655 23.8239 33.3772 23.7743C32.9245 23.6944 32.729 23.4961 32.7187 23.1021C32.707 22.6682 32.7143 22.2343 32.7232 21.8004C32.732 21.3527 32.9157 21.0979 33.4536 21.0414C33.7138 21.0139 33.9916 20.7852 34.1768 20.58C34.4252 20.3059 34.6412 19.9835 34.7794 19.6488C34.8896 19.3829 34.8735 19.0675 34.8882 18.7741C34.897 18.5826 34.7735 18.2672 34.8573 18.2162C35.5187 17.8057 36.2095 17.4379 36.9076 17.0839C36.9708 17.0523 37.181 17.179 37.2545 17.2782C37.9512 18.2135 38.9609 17.803 39.8678 17.8181C39.9531 17.8195 40.0618 17.7575 40.1206 17.6942C40.347 17.4517 40.4822 16.993 40.9496 17.2382C41.5963 17.5784 42.2077 17.9793 42.8044 18.3925C42.8794 18.4449 42.8118 18.7355 42.7515 18.8953C42.4708 19.6419 43.3644 21.1034 44.164 21.2921C44.4183 21.3527 44.6064 21.6558 44.8239 21.8472C44.8239 22.3059 44.8239 22.7646 44.8239 23.222ZM38.7552 19.9229C37.209 19.9009 36.0008 20.9987 35.9876 22.4354C35.9743 23.9548 37.1134 25.0816 38.6861 25.1064C40.2367 25.1311 41.4875 23.992 41.5066 22.5374C41.5272 21.0607 40.3528 19.9463 38.7552 19.9229Z" fill="black"/>
<path d="M19.5936 13.5878C19.7949 14.2379 19.9669 14.7462 20.1051 15.26C20.2168 15.6733 20.0771 15.9584 19.5803 16.0493C18.4251 16.2587 17.9989 16.7601 17.8901 18.0109C17.774 19.3415 18.0665 19.8718 19.1306 20.2603C19.7788 20.4972 19.9066 20.7892 19.4789 21.2796C18.9263 21.9132 18.9336 22.5538 19.4172 23.1626C19.8038 23.6489 20.2579 24.1076 20.7635 24.4836C21.2265 24.8266 21.7968 24.8225 22.3524 24.5511C23.0358 24.2178 23.2548 24.3775 23.4694 25.0401C23.6326 25.5456 23.9956 25.9961 24.2704 26.4699C24.3292 26.4424 24.388 26.4135 24.4468 26.3859C24.4468 26.4286 24.4645 26.481 24.4439 26.5126C23.8354 27.5196 23.2636 28.5485 22.5993 29.5224C22.1437 30.1891 21.6366 30.8613 21.0149 31.3875C18.4898 33.5199 15.1313 33.265 13.0236 30.634C11.7802 29.083 10.7734 27.3336 9.88855 25.5732C9.47995 24.7605 9.61664 23.7067 9.52111 22.7604C9.50788 22.6337 9.54609 22.4573 9.63575 22.3733C10.3545 21.6832 10.1017 20.8016 10.2178 19.9862C10.3559 19.0219 10.4456 18.026 10.7763 17.1141C11.5024 15.1058 13.0765 13.968 15.3018 13.5575C16.7922 13.2834 18.2517 13.2902 19.5936 13.5878Z" fill="black"/>
<path d="M28.1301 12.6926C27.9684 13.2602 28.4564 13.4131 28.8385 13.5687C29.2633 13.7409 29.669 14.2712 30.2025 13.7753C30.7787 13.2395 31.2681 13.3662 31.7311 13.9034C31.8839 14.0811 32.0427 14.2547 32.2043 14.4255C32.6159 14.8635 32.6423 15.3071 32.1206 15.6542C31.4548 16.0978 31.8487 16.5702 32.0059 17.0455C32.1558 17.4959 32.319 17.9188 32.9775 17.8692C33.4801 17.832 33.6653 18.1392 33.6756 18.5621C33.683 18.8596 33.6668 19.1571 33.6683 19.4533C33.6712 20.1186 33.3552 20.4368 32.6129 20.4644C31.6767 20.5002 31.0182 21.7978 31.5709 22.4961C31.9324 22.9535 31.9119 23.3295 31.4665 23.6904C31.1726 23.9301 30.8757 24.167 30.5582 24.3778C30.1657 24.6381 29.7777 24.6422 29.4764 24.2414C29.1178 23.7648 28.6651 23.8337 28.1756 24.0072C27.6539 24.1918 27.0586 24.2882 27.0865 25.0073C27.1042 25.4797 26.7779 25.6505 26.3369 25.6657C25.9959 25.6781 25.6535 25.6629 25.314 25.6437C24.657 25.6065 24.2307 25.3268 24.3292 24.6533C24.435 23.9425 23.8192 23.8722 23.3797 23.6367C22.955 23.408 22.5317 23.2772 22.1304 23.6821C21.6821 24.1353 21.2823 23.9838 20.9046 23.5898C20.6929 23.3695 20.4725 23.1546 20.2711 22.9259C19.889 22.4906 19.8919 22.1036 20.3328 21.6614C21.0325 20.9589 20.5136 19.6599 19.4907 19.496C19.0336 19.423 18.7808 19.2164 18.7778 18.777C18.7763 18.434 18.769 18.0896 18.8028 17.7494C18.8586 17.1681 19.1408 16.781 19.8405 16.8995C20.3769 16.9904 20.6121 16.6873 20.7503 16.3058C20.9149 15.8512 21.5175 15.4324 20.9384 14.8897C20.4372 14.42 20.5842 13.9971 21.0457 13.6018C21.2618 13.4172 21.494 13.2491 21.713 13.0673C22.1877 12.6678 22.6537 12.6802 23.0182 13.1665C23.3209 13.5701 23.6619 13.5852 24.0793 13.4007C24.5703 13.183 25.3066 13.2726 25.3478 12.4874C25.3816 11.8524 25.7946 11.6155 26.4325 11.6554C26.725 11.6733 27.0204 11.6733 27.307 11.7229C27.8655 11.8193 28.3079 12.0287 28.1301 12.6926ZM29.4235 18.7315C29.3647 16.8182 28.0213 15.6115 26.0239 15.679C24.3028 15.7369 22.9902 17.1295 23.0284 18.8568C23.0637 20.4285 24.5717 21.7206 26.3384 21.6903C28.0066 21.6628 29.4705 20.2591 29.4235 18.7315Z" fill="black"/>
<path d="M31.0742 2.07905C30.4216 2.82977 31.1756 3.39591 31.5357 3.98547C31.7224 4.29127 32.1795 4.45381 32.5175 4.67697C32.5528 4.70038 32.6248 4.67559 32.6586 4.69901C33.3156 5.15082 33.0408 5.81339 33.057 6.3933C33.0687 6.78037 33.0731 7.2253 32.4529 7.33412C31.4666 7.5063 30.6979 8.85898 30.986 9.77776C31.0389 9.94581 30.9507 10.2461 30.8111 10.3549C30.4393 10.6442 30.0116 10.8715 29.5927 11.1043C29.0929 11.3811 28.6491 11.4128 28.2801 10.8715C28.1773 10.7213 27.8906 10.6277 27.679 10.6098C27.2189 10.5698 26.7501 10.5657 26.2915 10.6042C26.0813 10.6221 25.8006 10.7213 25.6962 10.8729C25.3494 11.3743 24.9422 11.3866 24.4499 11.1208C24.1118 10.939 23.7723 10.7599 23.4445 10.5629C23.0065 10.2998 22.7743 9.99265 23.1124 9.48436C23.2108 9.33559 23.1756 9.04632 23.0918 8.86725C22.9169 8.49257 22.7096 8.11928 22.4377 7.80246C22.2437 7.57655 21.9439 7.3355 21.6573 7.29279C21.1531 7.21565 20.9929 6.97322 20.9856 6.55722C20.9782 6.16877 20.9768 5.78032 20.9797 5.39187C20.9841 4.89047 21.1722 4.57779 21.7895 4.55575C22.0012 4.54748 22.2555 4.34224 22.3995 4.16317C22.6611 3.83671 22.886 3.47443 23.0653 3.10251C23.1653 2.89727 23.2505 2.58458 23.1535 2.41515C22.8419 1.86829 23.0888 1.55148 23.5548 1.28287C23.8664 1.1038 24.1868 0.938499 24.5057 0.770447C24.9922 0.515614 25.4214 0.455005 25.7036 1.04181C25.7536 1.1465 25.9226 1.27185 26.0314 1.26909C26.9338 1.24154 27.9524 1.70851 28.6564 0.764936C28.6961 0.711214 28.7637 0.665758 28.8284 0.640964C29.3119 0.449495 31.0639 1.5253 31.0742 2.07905ZM27.0485 8.54354C28.5241 8.54492 29.8161 7.35065 29.8146 5.98281C29.8146 4.5709 28.5374 3.36148 27.022 3.33806C25.4964 3.31464 24.2514 4.50065 24.2632 5.96628C24.2764 7.46498 25.442 8.54216 27.0485 8.54354Z" fill="black"/>
</svg>
